<?xml version="1.0" encoding="utf-8"?>
<!-- Generator: Adobe Illustrator 17.0.0, SVG Export Plug-In . SVG Version: 6.00 Build 0)  -->
<!DOCTYPE svg PUBLIC "-//W3C//DTD SVG 1.1//EN" "http://www.w3.org/Graphics/SVG/1.1/DTD/svg11.dtd">
<svg version="1.1" xmlns="http://www.w3.org/2000/svg" xmlns:xlink="http://www.w3.org/1999/xlink" x="0px" y="0px"
	 width="513.991px" height="430px" viewBox="0 0 513.991 430" enable-background="new 0 0 513.991 430" xml:space="preserve">
<g id="BACKGROUND_2">
</g>
<g id="BACKGROUND_1">
	<g>
		<path fill="#73B9DD" d="M219.382,7.024C350.307-1.875,410.45,55.871,443.32,133.704c32.87,77.834,82.401,104.301,47.164,194.495
			C455.246,418.393,330.96,431.326,282.54,421.22c-48.42-10.106-98.503-36.918-158.731-56.865
			C34.218,334.683,12.388,294.837,10.973,255.411C8.97,199.641,42.549,193.13,53.91,131.876
			C67.523,58.48,116.965,13.986,219.382,7.024z"/>
		<g>
			<circle fill="#8ECAEE" cx="255.498" cy="225.907" r="126.216"/>
		</g>
		<g>
			<g>
				<path fill="#FFFFE8" d="M397.045,68.185c0,4.894-3.967,8.863-8.861,8.863c4.662,0,8.482,3.599,8.835,8.169h0.052
					c0.355-4.57,4.176-8.169,8.837-8.169C401.014,77.049,397.045,73.079,397.045,68.185z"/>
			</g>
			<g>
				<path fill="#FFFFE8" d="M39.194,194.553c0,4.894-3.967,8.863-8.861,8.863c4.662,0,8.482,3.599,8.835,8.169h0.052
					c0.355-4.57,4.176-8.169,8.837-8.169C43.163,203.417,39.194,199.447,39.194,194.553z"/>
			</g>
			<g>
				<path fill="#FFFFE8" d="M412.87,154.724c0,3.862-3.13,6.994-6.991,6.994c3.678,0,6.693,2.839,6.971,6.445h0.041
					c0.28-3.606,3.295-6.445,6.973-6.445C416.002,161.718,412.87,158.586,412.87,154.724z"/>
			</g>
			<g>
				<path fill="#FFFFE8" d="M373.348,49.219c0,3.861-3.13,6.993-6.991,6.993c3.678,0,6.693,2.84,6.971,6.445h0.041
					c0.28-3.606,3.295-6.445,6.973-6.445C376.48,56.212,373.348,53.08,373.348,49.219z"/>
			</g>
			<g>
				<path fill="#FFFFE8" d="M109.619,41.292c0,3.862-3.13,6.994-6.991,6.994c3.678,0,6.693,2.839,6.971,6.445h0.041
					c0.28-3.606,3.295-6.445,6.973-6.445C112.751,48.286,109.619,45.154,109.619,41.292z"/>
			</g>
			<g>
				<path fill="#FFFFE8" d="M85.737,73.976c0,1.937-1.57,3.508-3.507,3.508c1.845,0,3.357,1.424,3.496,3.233h0.021
					c0.141-1.809,1.653-3.233,3.497-3.233C87.307,77.484,85.737,75.913,85.737,73.976z"/>
			</g>
			<g>
				<path fill="#FFFFE8" d="M448.643,162.307c0,1.937-1.57,3.508-3.507,3.508c1.845,0,3.357,1.424,3.496,3.233h0.021
					c0.141-1.809,1.652-3.233,3.497-3.233C450.214,165.815,448.643,164.244,448.643,162.307z"/>
			</g>
			<g>
				<path fill="#FFFFE8" d="M169.026,45.219c0,1.937-1.57,3.507-3.507,3.507c1.845,0,3.357,1.424,3.496,3.233h0.021
					c0.141-1.809,1.652-3.233,3.497-3.233C170.597,48.727,169.026,47.156,169.026,45.219z"/>
			</g>
			<g>
				<path fill="#FFFFE8" d="M345.476,41.271c0,1.937-1.57,3.508-3.507,3.508c1.845,0,3.357,1.424,3.496,3.233h0.021
					c0.141-1.809,1.652-3.233,3.497-3.233C347.047,44.779,345.476,43.208,345.476,41.271z"/>
			</g>
			<g>
				<path fill="#FFFFE8" d="M425.194,117.964c0,1.937-1.57,3.508-3.507,3.508c1.845,0,3.357,1.424,3.496,3.233h0.021
					c0.141-1.809,1.652-3.233,3.497-3.233C426.765,121.472,425.194,119.901,425.194,117.964z"/>
			</g>
			<g>
				<g>
					<path fill="#DBEAF3" d="M128.563,125.225H47.798c0.146-0.945,0.409-1.853,0.766-2.708c1.782-4.265,5.995-7.26,10.904-7.26
						c1.213,0,2.379,0.183,3.479,0.527c1.171,0.357,2.257,0.893,3.24,1.575c0.089-0.748,0.216-1.486,0.39-2.205
						c2.008-8.496,9.639-14.821,18.751-14.821c4.693,0,8.99,1.674,12.333,4.462c2.172,1.81,3.94,4.091,5.149,6.686
						c0.578,1.241,1.03,2.553,1.331,3.921c0.094,0.409,0.174,0.827,0.24,1.251c0.094-0.113,0.188-0.226,0.287-0.334
						c2.492-2.868,6.169-4.683,10.274-4.683c4.89,0,9.173,2.577,11.576,6.446C127.811,120.157,128.559,122.602,128.563,125.225z"/>
				</g>
				<g>
					<path fill="#FFFFE8" d="M97.662,104.795c-2.012,8.492-9.648,14.816-18.756,14.816c-4.688,0-8.99-1.674-12.329-4.457
						c2.008-8.496,9.639-14.821,18.751-14.821C90.021,100.333,94.319,102.007,97.662,104.795z"/>
				</g>
				<g>
					<path fill="#FFFFE8" d="M62.948,115.784c-2.337,4.157-6.79,6.964-11.901,6.964c-0.846,0-1.679-0.075-2.483-0.23
						c1.782-4.265,5.995-7.26,10.904-7.26C60.681,115.257,61.847,115.441,62.948,115.784z"/>
				</g>
				<g>
					<path fill="#FFFFE8" d="M102.811,111.482c0.578,1.241,1.03,2.553,1.331,3.921C103.507,114.19,103.051,112.873,102.811,111.482z
						"/>
				</g>
				<g>
					<path fill="#FFFFE8" d="M126.518,118.083c-2.497,2.859-6.174,4.664-10.269,4.664c-4.885,0-9.173-2.567-11.581-6.428
						c2.492-2.868,6.169-4.683,10.274-4.683C119.832,111.637,124.115,114.213,126.518,118.083z"/>
				</g>
			</g>
			<g>
				<g>
					<path fill="#DBEAF3" d="M487.666,210.541h-84.339c0.152-0.987,0.427-1.935,0.8-2.828c1.861-4.453,6.26-7.581,11.386-7.581
						c1.267,0,2.484,0.192,3.633,0.55c1.223,0.373,2.357,0.933,3.383,1.645c0.093-0.781,0.226-1.552,0.408-2.303
						c2.096-8.872,10.065-15.476,19.581-15.476c4.9,0,9.388,1.748,12.879,4.66c2.269,1.89,4.115,4.272,5.376,6.982
						c0.604,1.296,1.075,2.666,1.39,4.095c0.098,0.427,0.182,0.864,0.25,1.306c0.098-0.118,0.196-0.236,0.3-0.349
						c2.602-2.995,6.442-4.89,10.728-4.89c5.106,0,9.579,2.691,12.088,6.732C486.881,205.248,487.661,207.801,487.666,210.541z"/>
				</g>
				<g>
					<path fill="#FFFFE8" d="M455.398,189.207c-2.101,8.867-10.075,15.471-19.586,15.471c-4.895,0-9.388-1.748-12.874-4.655
						c2.096-8.872,10.065-15.476,19.581-15.476C447.419,184.547,451.907,186.295,455.398,189.207z"/>
				</g>
				<g>
					<path fill="#FFFFE8" d="M419.147,200.681c-2.44,4.34-7.09,7.272-12.427,7.272c-0.884,0-1.753-0.079-2.592-0.241
						c1.861-4.453,6.26-7.581,11.386-7.581C416.781,200.132,417.999,200.323,419.147,200.681z"/>
				</g>
				<g>
					<path fill="#FFFFE8" d="M460.774,196.189c0.604,1.296,1.075,2.666,1.39,4.095C461.501,199.017,461.025,197.642,460.774,196.189
						z"/>
				</g>
				<g>
					<path fill="#FFFFE8" d="M485.531,203.083c-2.607,2.985-6.447,4.871-10.723,4.871c-5.101,0-9.579-2.681-12.093-6.712
						c2.602-2.995,6.442-4.89,10.728-4.89C478.548,196.351,483.021,199.042,485.531,203.083z"/>
				</g>
			</g>
			<g>
				<g>
					<path fill="#DBEAF3" d="M106.509,256.217H39.195c0.122-0.788,0.341-1.544,0.639-2.257c1.485-3.554,4.997-6.051,9.088-6.051
						c1.011,0,1.983,0.153,2.9,0.439c0.976,0.298,1.881,0.744,2.7,1.313c0.074-0.623,0.18-1.238,0.325-1.838
						c1.673-7.081,8.034-12.352,15.628-12.352c3.911,0,7.493,1.395,10.279,3.719c1.811,1.509,3.284,3.409,4.291,5.573
						c0.482,1.035,0.858,2.128,1.109,3.268c0.078,0.341,0.145,0.69,0.2,1.042c0.078-0.094,0.157-0.188,0.239-0.278
						c2.077-2.39,5.141-3.903,8.563-3.903c4.076,0,7.646,2.148,9.648,5.373C105.882,251.992,106.505,254.03,106.509,256.217z"/>
				</g>
				<g>
					<path fill="#FFFFE8" d="M80.754,239.19c-1.677,7.077-8.041,12.348-15.632,12.348c-3.907,0-7.493-1.395-10.275-3.715
						c1.673-7.081,8.034-12.352,15.628-12.352C74.386,235.471,77.968,236.866,80.754,239.19z"/>
				</g>
				<g>
					<path fill="#FFFFE8" d="M51.822,248.348c-1.948,3.464-5.659,5.804-9.918,5.804c-0.706,0-1.399-0.063-2.069-0.192
						c1.485-3.554,4.997-6.051,9.088-6.051C49.933,247.909,50.905,248.062,51.822,248.348z"/>
				</g>
				<g>
					<path fill="#FFFFE8" d="M85.045,244.762c0.482,1.035,0.858,2.128,1.109,3.268C85.625,247.02,85.245,245.922,85.045,244.762z"/>
				</g>
				<g>
					<path fill="#FFFFE8" d="M104.804,250.264c-2.081,2.383-5.145,3.887-8.559,3.887c-4.072,0-7.646-2.14-9.652-5.357
						c2.077-2.39,5.141-3.903,8.563-3.903C99.231,244.891,102.801,247.039,104.804,250.264z"/>
				</g>
			</g>
		</g>
		<g>
			<g>
				<g>
					<g>
						<path fill="#FFFFFF" d="M424.938,331.124c-0.022,0-0.045-0.001-0.068-0.002c-1.679-0.069-3.365-0.252-5.011-0.544
							c-0.876-0.156-1.46-0.991-1.305-1.866c0.155-0.875,0.987-1.458,1.867-1.305c1.505,0.267,3.047,0.435,4.583,0.498
							c0.888,0.037,1.579,0.787,1.542,1.676C426.511,330.446,425.797,331.124,424.938,331.124z M429.761,331.005
							c-0.823,0-1.525-0.627-1.602-1.463c-0.082-0.886,0.571-1.669,1.456-1.75c1.532-0.141,3.063-0.385,4.552-0.726
							c0.867-0.196,1.73,0.343,1.93,1.209c0.199,0.866-0.343,1.73-1.209,1.929c-1.628,0.374-3.303,0.641-4.978,0.794
							C429.859,331.003,429.81,331.005,429.761,331.005z M415.457,329.441c-0.163,0-0.329-0.025-0.493-0.078
							c-1.598-0.514-3.176-1.142-4.688-1.866c-0.802-0.384-1.142-1.345-0.757-2.147c0.384-0.803,1.348-1.142,2.147-0.757
							c1.382,0.661,2.824,1.234,4.284,1.704c0.847,0.272,1.312,1.179,1.04,2.026C416.771,329.006,416.138,329.441,415.457,329.441z
							 M439.146,328.85c-0.65,0-1.262-0.397-1.506-1.041c-0.315-0.832,0.104-1.761,0.936-2.076c1.434-0.543,2.843-1.187,4.189-1.915
							c0.782-0.425,1.76-0.133,2.183,0.649c0.423,0.782,0.132,1.76-0.649,2.183c-1.473,0.797-3.014,1.502-4.582,2.095
							C439.528,328.816,439.335,328.85,439.146,328.85z M406.764,325.284c-0.303,0-0.609-0.085-0.882-0.264
							c-1.397-0.917-2.75-1.94-4.021-3.043c-0.671-0.583-0.744-1.599-0.161-2.271c0.583-0.672,1.599-0.743,2.272-0.161
							c1.162,1.008,2.4,1.944,3.678,2.783c0.743,0.488,0.951,1.486,0.462,2.23C407.803,325.029,407.289,325.284,406.764,325.284z
							 M447.611,324.267c-0.497,0-0.987-0.229-1.302-0.66c-0.524-0.719-0.367-1.726,0.351-2.25c1.239-0.905,2.429-1.9,3.535-2.961
							c0.642-0.614,1.663-0.594,2.277,0.049c0.615,0.642,0.594,1.661-0.049,2.277c-1.21,1.159-2.51,2.248-3.864,3.236
							C448.273,324.167,447.941,324.267,447.611,324.267z M399.492,318.972c-0.447,0-0.891-0.185-1.209-0.546
							c-1.108-1.259-2.141-2.602-3.071-3.996c-0.494-0.74-0.295-1.739,0.445-2.233c0.738-0.495,1.738-0.295,2.233,0.445
							c0.851,1.275,1.797,2.504,2.81,3.655c0.587,0.668,0.523,1.685-0.144,2.273C400.25,318.84,399.871,318.972,399.492,318.972z
							 M454.561,317.605c-0.352,0-0.707-0.115-1.003-0.351c-0.695-0.554-0.809-1.567-0.255-2.263
							c0.955-1.198,1.839-2.474,2.626-3.79c0.457-0.763,1.446-1.013,2.208-0.556c0.763,0.457,1.012,1.445,0.556,2.209
							c-0.861,1.44-1.827,2.834-2.873,4.146C455.503,317.398,455.034,317.605,454.561,317.605z M394.151,310.965
							c-0.597,0-1.17-0.332-1.449-0.904c-0.734-1.506-1.374-3.077-1.9-4.672c-0.278-0.844,0.18-1.755,1.025-2.034
							c0.847-0.28,1.756,0.181,2.034,1.024c0.48,1.457,1.065,2.893,1.737,4.269c0.39,0.799,0.058,1.763-0.741,2.154
							C394.628,310.913,394.387,310.965,394.151,310.965z M459.502,309.336c-0.211,0-0.425-0.043-0.632-0.131
							c-0.818-0.349-1.197-1.296-0.848-2.113c0.602-1.409,1.113-2.873,1.52-4.353c0.236-0.858,1.121-1.361,1.98-1.126
							c0.857,0.236,1.362,1.122,1.126,1.98c-0.445,1.619-1.005,3.222-1.665,4.765C460.723,308.968,460.128,309.336,459.502,309.336z
							 M391.131,301.82c-0.761,0-1.438-0.542-1.582-1.317c-0.305-1.646-0.502-3.331-0.583-5.008
							c-0.043-0.888,0.642-1.643,1.53-1.687c0.865-0.029,1.643,0.642,1.687,1.53c0.075,1.533,0.254,3.073,0.533,4.578
							c0.162,0.874-0.415,1.714-1.29,1.877C391.327,301.811,391.229,301.82,391.131,301.82z M462.059,300.047
							c-0.071,0-0.143-0.005-0.216-0.014c-0.881-0.118-1.5-0.929-1.382-1.81c0.203-1.516,0.306-3.064,0.306-4.6
							c0-1.141-0.057-2.294-0.168-3.425c-0.087-0.885,0.559-1.673,1.444-1.76c0.881-0.092,1.673,0.56,1.76,1.444
							c0.122,1.236,0.184,2.495,0.184,3.741c0,1.679-0.113,3.37-0.334,5.028C463.544,299.46,462.853,300.047,462.059,300.047z
							 M390.658,292.202c-0.045,0-0.09-0.001-0.135-0.005c-0.886-0.074-1.545-0.852-1.471-1.738
							c0.139-1.673,0.394-3.351,0.756-4.986c0.193-0.869,1.054-1.418,1.921-1.224c0.868,0.193,1.416,1.053,1.224,1.921
							c-0.331,1.494-0.564,3.027-0.691,4.556C392.191,291.566,391.487,292.202,390.658,292.202z M461.402,286.89
							c-0.728,0-1.388-0.498-1.565-1.238c-0.355-1.492-0.815-2.972-1.367-4.401c-0.321-0.829,0.092-1.761,0.921-2.082
							c0.827-0.32,1.761,0.091,2.082,0.921c0.605,1.563,1.108,3.184,1.496,4.817c0.206,0.865-0.328,1.733-1.194,1.939
							C461.651,286.876,461.525,286.89,461.402,286.89z M392.741,282.798c-0.186,0-0.374-0.032-0.557-0.101
							c-0.834-0.307-1.261-1.234-0.953-2.068c0.58-1.573,1.275-3.122,2.063-4.606c0.418-0.785,1.391-1.083,2.178-0.665
							c0.785,0.418,1.083,1.392,0.665,2.178c-0.721,1.355-1.355,2.771-1.885,4.208C394.012,282.395,393.396,282.798,392.741,282.798
							z M457.935,277.912c-0.568,0-1.118-0.3-1.412-0.833c-0.738-1.34-1.576-2.644-2.49-3.877c-0.53-0.715-0.38-1.723,0.334-2.253
							c0.716-0.53,1.724-0.38,2.253,0.334c1,1.349,1.917,2.775,2.724,4.24c0.429,0.779,0.145,1.759-0.633,2.188
							C458.464,277.847,458.197,277.912,457.935,277.912z M397.262,274.291c-0.326,0-0.654-0.098-0.938-0.303
							c-0.723-0.519-0.887-1.525-0.368-2.247c0.98-1.363,2.06-2.672,3.21-3.89c0.612-0.646,1.631-0.675,2.277-0.064
							c0.646,0.611,0.675,1.63,0.064,2.277c-1.053,1.113-2.04,2.31-2.937,3.556C398.256,274.058,397.763,274.291,397.262,274.291z
							 M452.198,270.177c-0.419,0-0.838-0.163-1.154-0.487c-1.07-1.099-2.224-2.135-3.429-3.081c-0.7-0.549-0.822-1.561-0.274-2.261
							c0.549-0.701,1.561-0.822,2.261-0.274c1.318,1.034,2.579,2.168,3.75,3.37c0.62,0.637,0.606,1.657-0.031,2.277
							C453.008,270.026,452.603,270.177,452.198,270.177z M403.877,267.289c-0.469,0-0.934-0.204-1.253-0.598
							c-0.56-0.691-0.453-1.705,0.239-2.264c1.306-1.057,2.693-2.033,4.123-2.901c0.761-0.462,1.751-0.22,2.212,0.54
							c0.462,0.76,0.22,1.75-0.54,2.212c-1.307,0.794-2.575,1.686-3.769,2.653C404.591,267.172,404.233,267.289,403.877,267.289z
							 M444.619,264.235c-0.277,0-0.557-0.072-0.814-0.222c-1.326-0.778-2.714-1.472-4.125-2.062
							c-0.821-0.343-1.208-1.285-0.864-2.106c0.343-0.819,1.286-1.207,2.106-0.864c1.543,0.645,3.062,1.404,4.513,2.256
							c0.766,0.45,1.024,1.436,0.573,2.204C445.709,263.95,445.172,264.235,444.619,264.235z M412.102,262.292
							c-0.621,0-1.212-0.362-1.477-0.967c-0.355-0.815,0.016-1.764,0.832-2.12c1.539-0.672,3.136-1.244,4.748-1.7
							c0.859-0.241,1.746,0.255,1.988,1.111c0.242,0.856-0.255,1.746-1.111,1.988c-1.473,0.416-2.932,0.939-4.338,1.552
							C412.536,262.248,412.318,262.292,412.102,262.292z M435.732,260.52c-0.137,0-0.277-0.018-0.416-0.055
							c-1.477-0.394-2.998-0.692-4.522-0.884c-0.883-0.112-1.507-0.917-1.396-1.799c0.112-0.883,0.926-1.504,1.799-1.396
							c1.668,0.211,3.334,0.536,4.95,0.967c0.859,0.23,1.37,1.112,1.141,1.971C437.095,260.044,436.443,260.52,435.732,260.52z
							 M421.364,259.666c-0.789,0-1.478-0.58-1.592-1.384c-0.125-0.88,0.488-1.696,1.368-1.821c1.654-0.234,3.345-0.359,5.026-0.372
							c0.004,0,0.008,0,0.012,0c0.884,0,1.604,0.713,1.61,1.598c0.006,0.889-0.709,1.616-1.598,1.622
							c-1.538,0.011-3.085,0.126-4.596,0.341C421.516,259.661,421.44,259.666,421.364,259.666z"/>
					</g>
				</g>
				<g>
					<g>
						<g>
							<path fill="#2E637D" d="M452.714,280.278l-2.401,12.635c-2.395,12.623-11.914,23.155-25.453,28.181l-0.303,0.109
								c-0.436,0.164-0.885,0.279-1.346,0.352c-0.873,0.146-1.782,0.133-2.686-0.036c-0.4-0.079-0.794-0.182-1.17-0.321
								c-1.043-0.37-1.989-0.958-2.747-1.716c-0.588-0.588-1.158-1.188-1.704-1.801c-1.564-1.74-2.965-3.559-4.177-5.445
								c-5.281-8.137-7.288-17.437-5.566-26.501l2.656-13.981l2.359,0.449c3.122,0.594,6.027-0.873,6.481-3.268l0.449-2.365
								l15.685,2.977l6.366,1.213l5.705,1.079l1.103,0.212l-0.449,2.365c-0.182,0.958,0.055,1.928,0.618,2.777
								c0.818,1.273,2.346,2.286,4.22,2.637L452.714,280.278z"/>
						</g>
					</g>
					<g>
						<g>
							<g>
								<path fill="#357893" d="M439.158,270.759l-24.252,46.922c-1.564-1.74-2.965-3.559-4.177-5.445l22.063-42.69L439.158,270.759
									z"/>
							</g>
						</g>
						<g>
							<g>
								<path fill="#357893" d="M446.136,277.192l-22.924,44.363c-0.873,0.146-1.782,0.133-2.686-0.036
									c-0.4-0.079-0.794-0.182-1.17-0.321l25.507-49.359l1.103,0.212l-0.449,2.365
									C445.336,275.373,445.572,276.343,446.136,277.192z"/>
							</g>
						</g>
					</g>
					<g>
						<g>
							<path fill="#8ECAEE" d="M441.113,276.623l-21.163-4.019c-0.616,3.246-4.264,5.28-8.146,4.543l-1.935,10.186
								c-1.842,9.697,1.631,19.871,9.457,27.706l0,0c1.197,1.198,3.143,1.617,4.746,1.023l0.263-0.098
								c11.207-4.155,19.013-12.759,20.982-23.125l1.71-9.003C443.144,283.098,440.497,279.869,441.113,276.623z"/>
						</g>
					</g>
					<g opacity="0.56">
						<g>
							<g>
								<path fill="#7FB3D4" d="M411.537,289.455l1.934-10.187c3.883,0.737,7.53-1.297,8.146-4.543l19.479,3.699
									c-0.099-0.589-0.099-1.196,0.017-1.802l-21.163-4.019c-0.616,3.246-4.264,5.28-8.146,4.543l-1.935,10.186
									c-1.659,8.737,1.008,17.855,7.275,25.307C412.078,305.616,410.032,297.377,411.537,289.455z"/>
							</g>
						</g>
					</g>
				</g>
			</g>
			<g>
				<path fill="#FFFFFF" d="M85.169,219.701c-0.866,0-1.581-0.688-1.609-1.559c-0.028-0.889,0.67-1.632,1.558-1.661
					c1.521-0.048,3.04-0.226,4.518-0.528c0.873-0.179,1.723,0.384,1.9,1.255c0.179,0.871-0.383,1.722-1.254,1.9
					c-1.657,0.339-3.36,0.538-5.062,0.592C85.204,219.701,85.187,219.701,85.169,219.701z M80.356,219.447
					c-0.074,0-0.149-0.005-0.223-0.015c-1.684-0.234-3.357-0.614-4.973-1.131c-0.847-0.271-1.314-1.178-1.043-2.025
					c0.271-0.846,1.177-1.315,2.025-1.043c1.44,0.461,2.932,0.8,4.434,1.008c0.88,0.122,1.496,0.935,1.374,1.816
					C81.837,218.863,81.147,219.447,80.356,219.447z M94.585,217.77c-0.643,0-1.25-0.388-1.499-1.023
					c-0.326-0.828,0.083-1.762,0.91-2.087c1.407-0.553,2.778-1.232,4.073-2.018c0.761-0.461,1.751-0.22,2.212,0.54
					c0.462,0.76,0.22,1.751-0.54,2.212c-1.452,0.882-2.989,1.644-4.568,2.264C94.98,217.734,94.78,217.77,94.585,217.77z
					 M71.196,216.517c-0.251,0-0.506-0.059-0.745-0.184c-1.505-0.787-2.951-1.708-4.301-2.74c-0.707-0.54-0.841-1.551-0.301-2.257
					c0.54-0.706,1.552-0.841,2.257-0.301c1.204,0.92,2.494,1.743,3.837,2.444c0.788,0.412,1.093,1.385,0.681,2.173
					C72.337,216.202,71.776,216.517,71.196,216.517z M102.799,212.783c-0.45,0-0.897-0.187-1.215-0.553
					c-0.584-0.671-0.514-1.688,0.156-2.272c1.143-0.996,2.209-2.095,3.167-3.268c0.561-0.689,1.577-0.791,2.265-0.229
					c0.689,0.563,0.792,1.577,0.229,2.266c-1.072,1.314-2.265,2.546-3.546,3.661C103.551,212.653,103.174,212.783,102.799,212.783z
					 M63.559,210.679c-0.432,0-0.863-0.173-1.18-0.515c-1.155-1.245-2.211-2.596-3.137-4.017c-0.486-0.745-0.276-1.742,0.469-2.228
					c0.747-0.486,1.743-0.276,2.228,0.469c0.827,1.268,1.77,2.474,2.801,3.585c0.605,0.652,0.567,1.671-0.085,2.276
					C64.345,210.537,63.952,210.679,63.559,210.679z M108.875,205.335c-0.268,0-0.54-0.067-0.79-0.208
					c-0.774-0.437-1.047-1.42-0.61-2.194c0.745-1.319,1.379-2.711,1.888-4.138c0.297-0.838,1.218-1.275,2.057-0.977
					c0.838,0.298,1.275,1.219,0.976,2.057c-0.569,1.6-1.282,3.162-2.117,4.641C109.983,205.04,109.438,205.335,108.875,205.335z
					 M58.313,202.629c-0.624,0-1.217-0.364-1.48-0.974c-0.671-1.559-1.212-3.188-1.606-4.84c-0.207-0.865,0.327-1.734,1.193-1.94
					c0.859-0.202,1.734,0.327,1.94,1.192c0.351,1.473,0.834,2.925,1.432,4.315c0.352,0.817-0.025,1.764-0.842,2.116
					C58.741,202.586,58.525,202.629,58.313,202.629z M112.101,196.279c-0.09,0-0.182-0.008-0.274-0.023
					c-0.876-0.151-1.465-0.983-1.314-1.859c0.255-1.484,0.384-3.009,0.384-4.533c0-1.135-0.072-2.279-0.215-3.402
					c-0.112-0.882,0.513-1.688,1.395-1.8c0.868-0.117,1.688,0.511,1.801,1.394c0.16,1.256,0.241,2.538,0.241,3.808
					c0,1.706-0.145,3.414-0.431,5.078C113.552,195.725,112.871,196.279,112.101,196.279z M56.078,193.281
					c-0.843,0-1.551-0.656-1.605-1.509c-0.039-0.629-0.06-1.271-0.06-1.909c0-1.061,0.057-2.133,0.168-3.184
					c0.094-0.885,0.895-1.522,1.772-1.431c0.884,0.094,1.525,0.887,1.431,1.771c-0.101,0.939-0.151,1.896-0.151,2.844
					c0,0.571,0.018,1.145,0.053,1.707c0.056,0.888-0.618,1.652-1.506,1.709C56.147,193.28,56.112,193.281,56.078,193.281z
					 M57.1,183.725c-0.146,0-0.294-0.02-0.442-0.062c-0.855-0.243-1.351-1.134-1.108-1.99c0.465-1.633,1.076-3.238,1.815-4.769
					c0.386-0.801,1.349-1.136,2.15-0.75c0.801,0.387,1.137,1.35,0.75,2.15c-0.659,1.365-1.203,2.795-1.617,4.251
					C58.446,183.263,57.802,183.725,57.1,183.725z M111.261,183.154c-0.688,0-1.326-0.445-1.539-1.137
					c-0.444-1.445-1.018-2.863-1.705-4.214c-0.403-0.793-0.088-1.762,0.704-2.166c0.796-0.403,1.763-0.087,2.165,0.705
					c0.771,1.516,1.415,3.106,1.914,4.728c0.262,0.85-0.215,1.751-1.065,2.012C111.578,183.131,111.418,183.154,111.261,183.154z
					 M61.275,175.065c-0.324,0-0.651-0.098-0.935-0.3c-0.723-0.517-0.891-1.523-0.373-2.246c0.987-1.38,2.099-2.685,3.307-3.88
					c0.632-0.626,1.651-0.62,2.277,0.012c0.625,0.632,0.62,1.652-0.013,2.277c-1.078,1.066-2.071,2.232-2.951,3.463
					C62.272,174.831,61.778,175.065,61.275,175.065z M106.907,174.588c-0.491,0-0.976-0.223-1.292-0.647
					c-0.907-1.214-1.923-2.358-3.022-3.4c-0.646-0.612-0.672-1.631-0.061-2.277c0.613-0.645,1.631-0.672,2.276-0.06
					c1.232,1.168,2.371,2.45,3.387,3.81c0.532,0.713,0.386,1.721-0.327,2.254C107.58,174.484,107.242,174.588,106.907,174.588z
					 M68.113,168.305c-0.509,0-1.009-0.24-1.322-0.688c-0.509-0.729-0.331-1.733,0.398-2.242c1.393-0.973,2.878-1.832,4.412-2.552
					c0.804-0.377,1.764-0.032,2.142,0.774c0.377,0.805,0.031,1.764-0.774,2.142c-1.369,0.642-2.693,1.408-3.936,2.277
					C68.753,168.211,68.431,168.305,68.113,168.305z M99.93,167.971c-0.307,0-0.618-0.088-0.892-0.271
					c-1.263-0.843-2.603-1.581-3.985-2.194c-0.813-0.361-1.18-1.311-0.819-2.124c0.361-0.813,1.314-1.179,2.125-0.819
					c1.55,0.687,3.054,1.515,4.468,2.46c0.74,0.494,0.939,1.493,0.445,2.233C100.96,167.72,100.45,167.971,99.93,167.971z
					 M76.811,164.226c-0.708,0-1.357-0.471-1.553-1.187c-0.234-0.858,0.272-1.743,1.13-1.977c1.634-0.446,3.322-0.754,5.015-0.915
					c0.879-0.083,1.671,0.565,1.756,1.45c0.084,0.885-0.565,1.672-1.451,1.756c-1.51,0.144-3.016,0.418-4.473,0.816
					C77.095,164.207,76.951,164.226,76.811,164.226z M91.143,164.075c-0.13,0-0.261-0.016-0.392-0.048
					c-1.466-0.367-2.976-0.609-4.489-0.721c-0.887-0.066-1.553-0.838-1.487-1.725c0.065-0.887,0.846-1.55,1.724-1.487
					c1.697,0.126,3.39,0.398,5.034,0.809c0.863,0.216,1.387,1.09,1.172,1.953C92.521,163.587,91.864,164.075,91.143,164.075z"/>
			</g>
			<g>
				<g>
					<g>
						<path fill="#404143" d="M378.199,168.557H132.797c-8.775,0-15.889,6.488-15.889,14.492v169.074h277.181V183.049
							C394.089,175.045,386.975,168.557,378.199,168.557z"/>
					</g>
				</g>
				<g>
					<g>
						<path fill="#FFFFFF" d="M122.543,346.487V183.049c0-4.883,4.6-8.856,10.254-8.856h245.402c5.654,0,10.253,3.973,10.253,8.856
							v163.438H122.543z"/>
					</g>
				</g>
				<g>
					<g>
						<path fill="#FEC661" d="M126.569,342.462V183.049c0-2.618,2.852-4.831,6.228-4.831h245.402c3.376,0,6.228,2.212,6.228,4.831
							v159.413H126.569z"/>
					</g>
				</g>
				<g>
					<g>
						<path fill="#DBEAF3" d="M189.124,348.092c-7.346,0-14.219-2.597-19.704-7.379c-3.764,1.578-7.8,2.402-11.855,2.402
							c-17.279,0-30.975-14.56-30.534-32.352c0.438-17.676,14.684-31.972,31.76-31.972c2.111,0,4.186,0.215,6.214,0.642
							c4.394-15.098,17.963-25.796,33.743-25.796c2.573,0,5.094,0.283,7.547,0.844c1.36-12.832,12.061-22.851,24.913-22.851
							c1.699,0,3.389,0.178,5.041,0.529l3.882-92.181h41.331l4.142,99.233c1.91-0.679,3.936-1.04,5.997-1.04
							c9.961,0,18.171,8.118,18.552,18.244c4.339,1.576,7.8,5.114,9.343,9.568c1.132-0.114,2.27-0.171,3.409-0.171
							c11.647,0,22.579,6.043,29.165,15.797c3.953-1.855,8.266-2.819,12.711-2.819c17.076,0,31.322,14.296,31.76,31.972
							c0.441,17.792-13.255,32.352-30.535,32.352c-9.004,0-17.424-3.92-23.406-10.695c-5.578,3.719-12.116,5.726-18.877,5.726
							c-5.256,0-10.429-1.21-15.154-3.522c-6.876,5.396-15.282,8.335-24.029,8.335c-11.177,0-21.725-4.776-29.292-13.168h-1.352
							c-7.588,8.392-18.148,13.168-29.326,13.168c-5.137,0-10.091-0.984-14.773-2.932
							C204.088,345.189,196.737,348.092,189.124,348.092z"/>
					</g>
				</g>
				<g>
					<g>
						<path fill="#FFFFFF" d="M364.881,284.022c-5.456,0-10.485,1.737-14.612,4.7c-4.923-10.469-15.344-17.703-27.305-17.703
							c-2.675,0-5.262,0.367-7.722,1.045c0.03-0.344,0.045-0.692,0.041-1.045c-0.057-5.697-4.605-10.307-10.159-10.307
							c-0.177,0-0.349,0.018-0.524,0.027c0.324-1.197,0.504-2.456,0.494-3.762c-0.061-7.548-6.089-13.652-13.465-13.652
							c-4.392,0-8.268,2.172-10.691,5.514l-4.238-103.895h-31.807l-3.891,94.498c-2.891-1.697-6.242-2.671-9.822-2.671
							c-10.917,0-19.852,9.028-19.957,20.206c-0.016,1.721,0.18,3.392,0.559,4.99c-3.937-2.011-8.379-3.147-13.095-3.147
							c-15.321,0-28.118,11.954-29.863,27.335c-3.099-1.372-6.523-2.133-10.133-2.133c-14.304,0-26.185,11.939-26.538,26.74
							c-0.355,14.882,11.067,27.006,25.514,27.006c4.628,0,8.995-1.252,12.802-3.438c4.654,5.172,11.298,8.406,18.727,8.406
							c7.75,0,14.742-3.519,19.562-9.087c4.743,2.528,10.127,3.964,15.851,3.964c10.849,0,20.558-5.123,26.978-13.143h5.989
							c6.399,8.02,16.095,13.143,26.944,13.143c9.035,0,17.243-3.555,23.394-9.378c4.599,2.9,9.994,4.574,15.751,4.574
							c7.654,0,14.595-2.961,19.836-7.823c4.729,7.665,13.029,12.782,22.405,12.782c14.446,0,25.868-12.124,25.514-27.006
							C391.066,295.961,379.186,284.022,364.881,284.022z M281.789,266.127c-0.049,0.003-0.097,0.008-0.145,0.011l-0.008-0.183
							C281.685,266.014,281.738,266.07,281.789,266.127z"/>
					</g>
				</g>
				<g>
					<g>
						<path fill="#DBEAF3" d="M244.685,326.102c0,1.844-0.258,3.623-0.741,5.306c-2.303,8.172-9.814,14.154-18.727,14.154
							c-6.964,0-13.075-3.655-16.513-9.154c-1.876-2.987-2.955-6.521-2.955-10.306c0-2.713,0.555-5.298,1.562-7.641
							c0.395-0.926,0.862-1.819,1.393-2.665c3.438-5.507,9.549-9.162,16.513-9.162c6.304,0,11.908,2.995,15.458,7.641
							c0.225,0.282,0.435,0.58,0.636,0.878C243.437,318.268,244.685,322.036,244.685,326.102z"/>
					</g>
				</g>
				<g>
					<g>
						<path fill="#FFFFFF" d="M240.676,314.275c-2.971,6.956-9.871,11.827-17.906,11.827c-4.291,0-8.26-1.393-11.481-3.744
							c-1.506-1.103-2.85-2.415-3.977-3.897c-0.129-0.161-0.25-0.322-0.362-0.491c-1.602-2.222-2.745-4.798-3.285-7.592
							c1.787,1.304,3.341,2.906,4.589,4.734c0.153,0.226,0.306,0.451,0.451,0.684c3.438-5.507,9.549-9.162,16.513-9.162
							C231.522,306.634,237.125,309.629,240.676,314.275z"/>
					</g>
				</g>
				<g>
					<g>
						<path fill="#DBEAF3" d="M211.652,326.102c0,3.784-1.079,7.319-2.947,10.306c-3.446,5.499-9.557,9.154-16.521,9.154
							c-10.748,0-19.468-8.711-19.468-19.46c0-2.327,0.411-4.549,1.159-6.618c2.705-7.496,9.879-12.85,18.308-12.85
							c4.299,0,8.26,1.385,11.481,3.744c1.787,1.304,3.341,2.906,4.589,4.734c0.153,0.226,0.306,0.451,0.451,0.684
							c1.232,1.973,2.126,4.195,2.584,6.562C211.531,323.565,211.652,324.822,211.652,326.102z"/>
					</g>
				</g>
				<g>
					<g>
						<path fill="#FFFFFF" d="M208.254,315.112c-0.362,0.99-0.797,1.948-1.304,2.858c-3.317,5.966-9.694,10-17.004,10
							c-6.674,0-12.568-3.357-16.07-8.486c2.705-7.496,9.879-12.85,18.308-12.85c4.299,0,8.26,1.385,11.481,3.744
							C205.452,311.682,207.006,313.284,208.254,315.112z"/>
					</g>
				</g>
				<g>
					<g>
						<path fill="#DBEAF3" d="M293.572,319.274c0,14.516-11.771,26.287-26.287,26.287c-10.144,0-18.952-5.748-23.34-14.154
							c0.008-0.008,0-0.008,0-0.008c-1.884-3.631-2.955-7.753-2.955-12.125c0-1.401,0.113-2.778,0.322-4.114
							c0-0.008,0-0.008,0-0.008c0.185-1.159,0.443-2.295,0.773-3.398c3.229-10.853,13.292-18.767,25.2-18.767
							c9.17,0,17.246,4.702,21.956,11.819C291.978,308.953,293.572,313.928,293.572,319.274z"/>
					</g>
				</g>
				<g>
					<g>
						<path fill="#FFFFFF" d="M289.24,304.806c-3.229,10.869-13.292,18.791-25.2,18.791c-9.178,0-17.262-4.71-21.955-11.843
							c3.229-10.853,13.292-18.767,25.2-18.767C276.455,292.987,284.53,297.689,289.24,304.806z"/>
					</g>
				</g>
				<g>
					<g>
						<g>
							<path fill="#676B6C" d="M134.563,327.97h-20.128c-2.001,0-3.623,1.622-3.623,3.623v9.259h27.374v-9.259
								C138.186,329.592,136.564,327.97,134.563,327.97z"/>
						</g>
					</g>
					<g>
						<g>
							<path fill="#676B6C" d="M165.403,327.97h-20.128c-2.001,0-3.623,1.622-3.623,3.623v9.259h27.374v-9.259
								C169.026,329.592,167.404,327.97,165.403,327.97z"/>
						</g>
					</g>
					<g>
						<g>
							<path fill="#676B6C" d="M196.244,327.97h-20.128c-2.001,0-3.623,1.622-3.623,3.623v9.259h27.374v-9.259
								C199.867,329.592,198.245,327.97,196.244,327.97z"/>
						</g>
					</g>
					<g>
						<g>
							<path fill="#676B6C" d="M298.579,327.97h-89.203c-2.001,0-3.623,1.622-3.623,3.623v9.259h96.449v-9.259
								C302.202,329.592,300.579,327.97,298.579,327.97z"/>
						</g>
					</g>
					<g>
						<g>
							<path fill="#676B6C" d="M334.88,327.97h-20.128c-2.001,0-3.623,1.622-3.623,3.623v9.259h27.374v-9.259
								C338.503,329.592,336.881,327.97,334.88,327.97z"/>
						</g>
					</g>
					<g>
						<g>
							<path fill="#676B6C" d="M365.721,327.97h-20.128c-2.001,0-3.623,1.622-3.623,3.623v9.259h27.374v-9.259
								C369.344,329.592,367.721,327.97,365.721,327.97z"/>
						</g>
					</g>
					<g>
						<g>
							<path fill="#676B6C" d="M396.561,327.97h-20.128c-2.001,0-3.623,1.622-3.623,3.623v9.259h27.374v-9.259
								C400.184,329.592,398.562,327.97,396.561,327.97z"/>
						</g>
					</g>
				</g>
				<g>
					<g>
						<path fill="#E0E1E2" d="M415.716,352.123H95.28v-12.68c0-3.668,2.974-6.642,6.642-6.642h307.151
							c3.668,0,6.642,2.974,6.642,6.642V352.123z"/>
					</g>
				</g>
				<g>
					<g>
						<g>
							<g>
								<path fill="#DB5240" d="M300.674,156.978l2.524,2.701l0.497,0.535l10.182,10.883c2.462,2.631,3.393,6.532,2.435,10.181
									l-8.027,30.617c-0.216,0.81-0.902,1.38-1.683,1.383l-3.517,0.024c-0.783,0.01-1.473-0.571-1.664-1.401l-4.016-17.467
									c-0.018-0.085-0.039-0.164-0.06-0.242c-0.271-1.003-0.757-1.9-1.406-2.636c-0.654-0.739-1.471-1.307-2.405-1.636
									l-14.739-5.177L300.674,156.978z"/>
							</g>
						</g>
						<g>
							<g>
								<path fill="#DB5240" d="M224.987,157.576l2.117,2.68l19.507,24.739l-13.273,4.85l-1.511,0.554
									c-1.925,0.717-3.408,2.444-3.913,4.585l-0.274,1.159l-0.46,1.939l-3.438,14.429c-0.198,0.829-0.894,1.425-1.688,1.429
									l-3.512,0.027c-0.776,0.006-1.458-0.545-1.664-1.352l-7.757-30.493c-0.925-3.635,0.043-7.557,2.533-10.222l8.617-9.265
									l0.226-0.238L224.987,157.576z"/>
							</g>
						</g>
					</g>
					<g>
						<g>
							<path fill="#6A5753" d="M285.788,205.137l-48.159,0.378c-0.851,0.007-1.601-0.689-1.855-1.721l-4.795-19.49l61.651-0.483
								l-4.972,19.566C287.395,204.422,286.638,205.13,285.788,205.137z"/>
						</g>
					</g>
					<g>
						<g>
							<path fill="#FCB762" d="M226.196,161.886l19.507,24.737l-13.275,4.85C230.502,185.452,227.716,175.148,226.196,161.886z"/>
						</g>
					</g>
					<g>
						<g>
							<path fill="#B64433" d="M220.497,162.396l4.49-4.82l2.117,2.68l19.507,24.739l-13.273,4.85l-1.511,0.554
								c-1.925,0.717-3.408,2.444-3.913,4.585l-0.274,1.159l-0.46,1.939c-2.319-7.314-5.537-19.707-6.908-35.448L220.497,162.396z"
								/>
						</g>
					</g>
					<g>
						<g>
							<path fill="#B64433" d="M300.674,156.978l2.524,2.701l0.497,0.535c-1.236,14.383-4.018,26.132-6.351,33.977
								c-0.271-1.003-0.757-1.9-1.406-2.636c-0.654-0.739-1.471-1.307-2.405-1.636l-14.739-5.177L300.674,156.978z"/>
						</g>
					</g>
					<g>
						<g>
							<path fill="#FFF7C1" d="M292.466,191.898c-0.362,0.998-1.07,1.609-1.835,1.615l-30.505,0.242c0,0-21.781,0.172-27.242,0.217
								c-0.773,0.005-1.459-0.607-1.814-1.59c-4.958-14.061-22.545-74.559,16.143-137.573c1.308-2.127,2.681-4.26,4.118-6.399
								c2.941-4.366,6.171-8.725,9.692-13.085c0.83-1.019,2.095-1.028,2.916-0.026c3.479,4.304,6.661,8.618,9.56,12.924
								c1.43,2.121,2.788,4.247,4.082,6.365C315.682,116.992,297.561,177.743,292.466,191.898z"/>
						</g>
					</g>
					<g>
						<g>
							<g>
								<path fill="#F2C593" d="M240.235,146.463h-3.293v2.567h3.796v0.765h-4.769v-7.188h4.714v0.765h-3.742v2.325h3.293V146.463z"
									/>
							</g>
						</g>
						<g>
							<g>
								<path fill="#F2C593" d="M242.851,149.03h3.401v0.765h-4.374v-7.188h0.973V149.03z"/>
							</g>
						</g>
						<g>
							<g>
								<path fill="#F2C593" d="M251.604,146.463h-3.293v2.567h3.796v0.765h-4.769v-7.188h4.714v0.765h-3.742v2.325h3.293V146.463z"
									/>
							</g>
						</g>
						<g>
							<g>
								<path fill="#F2C593" d="M254.491,142.608l2.291,5.84h0.029l2.291-5.84h1.244v7.188h-0.973v-2.844l0.098-2.922l-0.024-0.005
									l-2.33,5.771h-0.647l-2.32-5.756l-0.024,0.005l0.094,2.908v2.844h-0.973v-7.188H254.491z"/>
							</g>
						</g>
						<g>
							<g>
								<path fill="#F2C593" d="M266.393,146.463H263.1v2.567h3.796v0.765h-4.768v-7.188h4.714v0.765H263.1v2.325h3.293V146.463z"/>
							</g>
						</g>
						<g>
							<g>
								<path fill="#F2C593" d="M273.472,149.795H272.5l-3.46-5.558l-0.03,0.01v5.549h-0.973v-7.188h0.973l3.46,5.548l0.03-0.01
									v-5.539h0.973V149.795z"/>
							</g>
						</g>
						<g>
							<g>
								<path fill="#F2C593" d="M279.974,143.373h-2.311v6.423h-0.972v-6.423h-2.306v-0.765h5.589V143.373z"/>
							</g>
						</g>
						<g>
							<g>
								<path fill="#F2C593" d="M284.866,147.985c0-0.327-0.124-0.601-0.37-0.822c-0.247-0.221-0.684-0.406-1.313-0.557
									c-0.76-0.181-1.353-0.449-1.779-0.802c-0.426-0.353-0.639-0.797-0.639-1.331c0-0.561,0.23-1.029,0.688-1.405
									c0.459-0.376,1.054-0.564,1.785-0.564c0.787,0,1.413,0.215,1.878,0.647c0.466,0.431,0.69,0.931,0.674,1.501l-0.009,0.03
									h-0.929c0-0.421-0.139-0.762-0.417-1.022c-0.278-0.26-0.678-0.39-1.197-0.39c-0.484,0-0.855,0.11-1.113,0.328
									c-0.258,0.219-0.388,0.504-0.388,0.857c0,0.313,0.14,0.574,0.42,0.782c0.28,0.209,0.734,0.393,1.362,0.551
									c0.757,0.188,1.333,0.464,1.728,0.829c0.395,0.365,0.592,0.818,0.592,1.357c0,0.579-0.237,1.045-0.711,1.397
									c-0.474,0.352-1.093,0.528-1.856,0.528c-0.717,0-1.352-0.195-1.903-0.585c-0.551-0.39-0.819-0.911-0.803-1.563l0.01-0.03
									h0.928c0,0.461,0.17,0.811,0.509,1.052c0.339,0.24,0.759,0.36,1.259,0.36c0.491,0,0.879-0.103,1.165-0.309
									C284.723,148.619,284.866,148.339,284.866,147.985z"/>
							</g>
						</g>
					</g>
					<g>
						<g>
							<g>
								<path fill="#F2C593" d="M232.967,131.046h5.104c0,2.306,2.305,2.69,3.458,2.744c0.961,0,2.333-0.219,2.333-1.372
									c0-2.141-10.539-1.235-10.539-8.234c0-4.062,3.842-5.901,6.532-5.901c2.305,0,4.638,0.741,5.736,2.799l0.274-2.305h4.72
									v6.889h-4.967c0-2.031-1.591-3.183-3.513-3.183c-0.796,0-1.893,0.494-1.893,1.455c0,2.826,10.868,2.168,10.868,8.618
									c0,4.281-4.007,5.818-7.273,5.818c-2.772,0-4.693-1.29-5.736-2.525l-0.302,2.114h-4.803V131.046z"/>
							</g>
						</g>
						<g>
							<g>
								<path fill="#F2C593" d="M268.999,118.779v6.065h-4.748v-2.443h-4.391v3.787h5.215v3.651h-5.215v4.473h4.391v-2.553h4.748
									v6.203H252.45v-3.65h1.729v-11.911h-1.729v-3.623H268.999z"/>
							</g>
						</g>
						<g>
							<g>
								<path fill="#F2C593" d="M270.094,128.275c0-5.928,3.952-10.017,9.633-10.017c6.724,0,9.852,4.034,9.852,10.209
									c0,6.202-3.458,9.99-9.661,9.99C274.183,138.457,270.094,135.136,270.094,128.275z M282.718,128.467
									c0-3.321-0.905-5.983-3.018-5.983c-1.675-0.028-2.827,2.387-2.827,5.791c0,3.596,1.29,5.873,3.047,5.873
									C281.648,134.148,282.718,131.87,282.718,128.467z"/>
							</g>
						</g>
					</g>
					<g>
						<g>
							
								<ellipse transform="matrix(0.9674 0.2533 -0.2533 0.9674 33.3766 -56.4624)" fill="#FFFFFF" cx="235.95" cy="101.381" rx="5.919" ry="11.211"/>
						</g>
					</g>
					<g>
						<g>
							<path fill="#E1D5DB" d="M298.912,111.102c-1.68,40.585-20.95,72.833-44.337,73.016c-11.807,0.092-22.485-8.02-30.341-21.279
								c1.883,14.205,5.117,24.665,6.835,29.541c0.354,0.988,1.043,1.595,1.814,1.589c5.463-0.043,27.247-0.214,27.247-0.214
								l30.5-0.239c0.77-0.006,1.474-0.624,1.836-1.617C295.97,182.159,305.641,150.338,298.912,111.102z"/>
						</g>
					</g>
					<g>
						<g>
							<path fill="#DB5240" d="M277.58,54.587c-4.754,1.753-9.859,2.716-15.175,2.757c-5.325,0.048-10.433-0.849-15.192-2.535
								c1.308-2.127,2.681-4.26,4.118-6.399c2.941-4.366,6.171-8.725,9.692-13.085c0.83-1.019,2.095-1.028,2.916-0.026
								c3.479,4.304,6.661,8.618,9.56,12.924C274.929,50.343,276.287,52.47,277.58,54.587z"/>
						</g>
					</g>
					<g>
						<g>
							<path fill="#DB5240" d="M264.522,166.719l-0.168,38.094l-0.037,7.905c-0.007,0.914-0.589,1.662-1.306,1.664l-5.449,0.048
								c-0.716,0.002-1.296-0.732-1.289-1.646l0.013-2.255l0.195-43.751c0.007-0.914,0.587-1.656,1.306-1.664l5.447-0.042
								C263.949,165.071,264.524,165.802,264.522,166.719z"/>
						</g>
					</g>
					<g>
						<g>
							<g>
								<path fill="#73605A" d="M278.194,85.152c-0.053,8.906-7.233,16.172-16.037,16.229c-8.804,0.056-15.898-7.118-15.845-16.024
									s7.233-16.172,16.037-16.229C271.154,69.071,278.248,76.246,278.194,85.152z"/>
							</g>
						</g>
						<g>
							<g>
								<path fill="#7EC0EA" d="M273.224,85.184c-0.036,6.13-4.978,11.13-11.037,11.169c-6.059,0.039-10.941-4.899-10.905-11.028
									c0.037-6.13,4.978-11.13,11.037-11.169C268.379,74.117,273.261,79.054,273.224,85.184z"/>
							</g>
						</g>
					</g>
				</g>
				<g>
					<g>
						<path fill="#DBEAF3" d="M266.139,260.34c18.03,0,32.646,14.616,32.646,32.646c0,1.844-0.161,3.649-0.454,5.41
							c2.746-4.781,4.324-10.319,4.324-16.228c0-18.03-14.616-32.646-32.646-32.646c-16.186,0-29.613,11.782-32.191,27.236
							C243.448,266.95,254.018,260.34,266.139,260.34z"/>
					</g>
				</g>
				<g>
					<g>
						<path fill="#DBEAF3" d="M344.186,292.55c12.331,0,22.327,9.996,22.327,22.326c0,1.261-0.11,2.496-0.311,3.7
							c1.878-3.27,2.957-7.057,2.957-11.098c0-12.331-9.996-22.327-22.326-22.327c-11.07,0-20.252,8.058-22.016,18.627
							C328.668,297.071,335.896,292.55,344.186,292.55z"/>
					</g>
				</g>
				<g>
					<g>
						<path fill="#DBEAF3" d="M165.779,293.274c9.497-6.333,22.329-3.767,28.662,5.73c0.647,0.971,1.197,1.979,1.661,3.009
							c-0.233-3.483-1.347-6.954-3.422-10.066c-6.333-9.497-19.165-12.062-28.662-5.73c-8.526,5.685-11.46,16.607-7.39,25.653
							C156.148,304.726,159.394,297.531,165.779,293.274z"/>
					</g>
				</g>
				<g>
					<g>
						<path fill="#FFFFFF" d="M207.337,234.218c-0.155-0.198-0.327-0.385-0.5-0.571l-17.195-19.336
							c-0.155-0.174-0.311-0.363-0.472-0.556c-1.058-1.27-2.507-3.009-4.55-1.711c-0.055,0.034-0.1,0.071-0.125,0.095
							c-0.152,0.112-0.267,0.257-0.34,0.423c-0.292,0.217-0.436,0.748-0.467,0.88c-0.111,0.452-0.077,0.987,0.09,1.431
							c0.132,0.351,0.345,0.617,0.562,0.887c0.143,0.178,0.294,0.352,0.447,0.522l-4.711,13.849l-4.889,4.349
							c-0.089,0.063-0.159,0.127-0.185,0.161c-0.094,0.083-0.172,0.181-0.212,0.256c-1.002,1.337-0.509,2.503,0.052,3.316
							c-0.782,1.517-0.494,3.257,0.798,4.707c1.24,1.391,2.934,1.877,4.478,1.311c1.38,1.339,2.707,0.786,3.667,0.104l3.687,4.148
							c0.961,1.083,2.157,2.431,3.612,2.508c0.043,0.002,0.086,0.004,0.129,0.004c0.674,0,1.327-0.284,1.944-0.844
							c2.262-2.058,0.27-4.285-1.048-5.758l-3.667-4.125l0.359-0.318l14.27-3.048c0.707,0.797,1.575,1.532,2.709,1.412
							c0.892-0.096,1.598-0.608,1.937-1.406C208.084,236.04,207.935,234.985,207.337,234.218z M184.623,240.574
							c-0.155,0.138-0.34,0.33-0.549,0.546c-0.16,0.168-0.335,0.349-0.519,0.528c-0.248,0.101-0.466,0.291-0.606,0.531
							c-0.828,0.634-1.164,0.423-1.278,0.351h-0.001c-0.109-0.069-0.228-0.201-0.316-0.306c-0.069-0.126-0.156-0.237-0.257-0.327
							c-0.097-0.129-0.192-0.252-0.281-0.351l-1.76-1.98c-0.097-0.109-0.266-0.272-0.475-0.474c-0.369-0.354-0.868-0.836-1.28-1.328
							c-0.084-0.22-0.233-0.419-0.423-0.562c-0.182-0.283-0.418-0.725-0.277-0.894l4.401-3.912l5.66,6.366L184.623,240.574z
							 M177.174,241.225c-0.189-0.236-0.325-0.487-0.402-0.743c0.222,0.258,0.443,0.517,0.663,0.778
							c0.172,0.202,0.344,0.405,0.517,0.607C177.664,241.718,177.395,241.499,177.174,241.225z M186.717,241.799l2.312,2.601
							c0.106,0.12,0.277,0.29,0.487,0.497c0.771,0.765,2.375,2.356,2.261,3.235c-0.014,0.109-0.063,0.27-0.322,0.421
							c-0.808,0.462-2.389-1.576-3.064-2.448c-0.199-0.258-0.368-0.475-0.493-0.616l-2.352-2.646L186.717,241.799z M205.451,235.482
							c-0.102,0.075-0.234,0.158-0.335,0.209c-0.02-0.028-0.039-0.054-0.053-0.072c-0.042-0.057-0.078-0.105-0.101-0.131
							l-8.042-9.046l-9.793-11.007c-0.061-0.101-0.142-0.194-0.196-0.232l-0.591-0.665c-0.204-0.23-0.218-0.302-0.156-0.522
							c0.524,0.2,1.208,1.108,1.561,1.578c0.142,0.189,0.263,0.349,0.354,0.451l16.87,18.98c0.043,0.049,0.12,0.12,0.21,0.204
							C205.245,235.289,205.365,235.4,205.451,235.482z M201.358,234.906l-12.635,2.698l-1.924-2.169
							c-1.465-1.653-2.93-3.307-4.406-4.952l4.162-12.231L201.358,234.906z M184.461,213.035L184.461,213.035L184.461,213.035
							L184.461,213.035z M184.286,213.035c-0.026,0.049-0.052,0.104-0.077,0.16c-0.089-0.063-0.146-0.139-0.15-0.16H184.286z"/>
					</g>
				</g>
				<g>
					<g>
						<g>
							<g>
								<g>
									<path fill="#FFFFFF" d="M351.069,238.768v-5.221h-3.132c-0.35-1.779-1.048-3.432-2.023-4.885l2.214-2.214l-3.692-3.692
										l-2.214,2.214c-1.453-0.975-3.106-1.674-4.885-2.023v-3.132h-5.221v3.132c-1.779,0.35-3.432,1.048-4.885,2.023
										l-2.214-2.214l-3.692,3.692l2.214,2.214c-0.975,1.453-1.673,3.106-2.023,4.885h-3.132v5.221h3.132
										c0.35,1.779,1.048,3.432,2.023,4.885l-2.214,2.214l3.692,3.692l2.214-2.214c1.453,0.975,3.106,1.674,4.885,2.023v3.132
										h5.221v-3.132c1.779-0.35,3.432-1.048,4.885-2.023l2.214,2.214l3.692-3.692l-2.214-2.214
										c0.975-1.453,1.673-3.106,2.023-4.885H351.069z M334.727,245.467c-5.141,0-9.309-4.168-9.309-9.309
										c0-5.141,4.168-9.309,9.309-9.309c5.141,0,9.309,4.168,9.309,9.309C344.036,241.299,339.868,245.467,334.727,245.467z"/>
								</g>
							</g>
						</g>
						<g>
							<g>
								<g>
									<circle fill="#FFFFFF" cx="334.727" cy="236.158" r="7.199"/>
								</g>
							</g>
						</g>
					</g>
					<g>
						<g>
							<g>
								<g>
									<path fill="#FFFFFF" d="M373.27,251.432v-3.808h-2.284c-0.255-1.297-0.764-2.503-1.475-3.563l1.615-1.615l-2.693-2.693
										l-1.615,1.615c-1.059-0.711-2.265-1.221-3.562-1.475v-2.284h-3.808v2.284c-1.297,0.255-2.503,0.764-3.562,1.475
										l-1.615-1.615l-2.693,2.693l1.615,1.615c-0.711,1.059-1.221,2.265-1.475,3.563h-2.284v3.808h2.284
										c0.255,1.297,0.764,2.503,1.475,3.562l-1.615,1.615l2.693,2.693l1.615-1.615c1.059,0.711,2.265,1.221,3.562,1.476v2.284
										h3.808v-2.284c1.297-0.255,2.503-0.764,3.562-1.476l1.615,1.615l2.693-2.693l-1.615-1.615
										c0.711-1.059,1.221-2.265,1.475-3.562H373.27z"/>
								</g>
							</g>
						</g>
					</g>
				</g>
				<g>
					<g>
						<g>
							<path fill="#FBFBFB" d="M168.791,211.676c0-3.478,0-6.956,0-10.434c0-1.666,0.21-3.517-0.284-5.131
								c-0.81-2.648-3.185-4.151-5.851-4.316c-5.984,0-12.01-0.222-17.99,0c-3.953,0.147-6.246,3.053-6.28,6.849
								c-0.027,3.049-0.494,6.566,0.137,9.568c0.859,4.081,4.46,4.899,8.013,4.899c3.719,0,7.447-0.079,11.165,0
								c1.881,0.04,3.206,0.753,4.411,2.205c1.01,1.217,1.93,2.934,3.68,3.049C169.454,218.605,168.791,213.994,168.791,211.676z
								 M166.391,214.982c-0.353,0.964-0.573,0.746-1.22,0.308c-1.199-0.812-1.827-2.505-3.045-3.393
								c-1.207-0.88-2.542-1.152-4.008-1.186c-2.976-0.069-5.962,0-8.939,0c-2.558,0-6.558,0.735-7.979-2.021
								c-0.581-1.126-0.414-2.561-0.414-3.787c0-1.633,0-3.267,0-4.9c0-1.228-0.168-2.659,0.414-3.787
								c0.845-1.638,2.423-1.99,4.074-2.021c5.79-0.109,11.591,0,17.382,0c4.295,0.267,3.735,4.583,3.735,7.659
								c0,2.962,0,5.923,0,8.885c0,0.705,0,1.41,0,2.116C166.391,213.461,166.595,214.425,166.391,214.982z"/>
						</g>
					</g>
					<g>
						<g>
							<path fill="#FBFBFB" d="M160.807,198.818h-15.846c-0.612,0-1.113,0.501-1.113,1.113c0,0.612,0.501,1.113,1.113,1.113h15.846
								c0.612,0,1.113-0.501,1.113-1.113C161.92,199.319,161.419,198.818,160.807,198.818z"/>
						</g>
					</g>
					<g>
						<g>
							<path fill="#FBFBFB" d="M156.557,203.046h-11.597c-0.612,0-1.113,0.501-1.113,1.113c0,0.612,0.501,1.113,1.113,1.113h11.597
								c0.612,0,1.113-0.501,1.113-1.113C157.67,203.547,157.169,203.046,156.557,203.046z"/>
						</g>
					</g>
					<g>
						<g>
							<path fill="#FBFBFB" d="M160.614,203.046h-1.326c-0.612,0-1.113,0.501-1.113,1.113c0,0.612,0.501,1.113,1.113,1.113h1.326
								c0.612,0,1.113-0.501,1.113-1.113C161.727,203.547,161.226,203.046,160.614,203.046z"/>
						</g>
					</g>
					<g>
						<g>
							<path fill="#FBFBFB" d="M154.759,219.153c-1.89-1.096-4.824-0.613-6.898-0.613c-2.491,0-4.982,0-7.473,0
								c-0.115,0-0.218,0.017-0.315,0.041c-5.577,0.771-4.178,8.05-4.178,12.203c0,1.615-0.509,4.119,0.522,5.426
								c1.996,2.53,3.679-0.64,5.02-1.787c1.834-1.569,5.342-0.86,7.535-0.86c2.087,0,4.636,0.398,6.367-1.032
								c2.041-1.686,1.644-4.361,1.644-6.718C156.985,223.347,157.252,220.599,154.759,219.153z M154.585,228.883
								c-0.259,2.535-2.418,2.28-4.315,2.28c-2.052,0-4.104,0-6.156,0c-1.805,0-3.272,0.338-4.528,1.753
								c-0.163,0.183-1.324,1.749-1.345,1.745c0.055,0.011,0.055-2.012,0.055-2.298c0-1.85,0-3.7,0-5.55
								c0-2.012-0.663-5.627,2.093-5.874c3.463,0,6.925,0,10.388,0c1.848,0,3.587,0.01,3.808,2.389
								C154.747,225.075,154.764,227.139,154.585,228.883z"/>
						</g>
					</g>
					<g>
						<g>
							<path fill="#FBFBFB" d="M152.198,223.626h-10.575c-0.408,0-0.742,0.334-0.742,0.743s0.334,0.743,0.742,0.743h10.575
								c0.408,0,0.742-0.334,0.742-0.743S152.607,223.626,152.198,223.626z"/>
						</g>
					</g>
					<g>
						<g>
							<path fill="#FBFBFB" d="M152.198,226.447h-7.739c-0.408,0-0.743,0.334-0.743,0.743c0,0.408,0.334,0.742,0.743,0.742h7.739
								c0.408,0,0.742-0.334,0.742-0.742C152.941,226.781,152.607,226.447,152.198,226.447z"/>
						</g>
					</g>
					<g>
						<g>
							<path fill="#FBFBFB" d="M142.637,226.447h-0.885c-0.408,0-0.743,0.334-0.743,0.743c0,0.408,0.334,0.742,0.743,0.742h0.885
								c0.408,0,0.743-0.334,0.743-0.742C143.38,226.781,143.045,226.447,142.637,226.447z"/>
						</g>
					</g>
				</g>
				<g>
					<g>
						<g>
							<g>
								<path fill="#FFFFFF" d="M355.238,219.116c-0.585,0-1.099-0.425-1.192-1.021c-0.317-2.035-1.407-3.824-3.069-5.039
									c-1.663-1.214-3.7-1.708-5.733-1.391c-0.655,0.104-1.276-0.348-1.38-1.007c-0.102-0.659,0.348-1.276,1.007-1.379
									c2.672-0.417,5.346,0.233,7.53,1.827c2.183,1.595,3.615,3.945,4.032,6.617c0.102,0.66-0.348,1.277-1.007,1.38
									C355.362,219.112,355.3,219.116,355.238,219.116z"/>
							</g>
						</g>
					</g>
					<g>
						<g>
							<g>
								<path fill="#FFFFFF" d="M363.046,218.303c-0.779,0-1.465-0.568-1.589-1.363c-0.625-4.014-2.776-7.544-6.056-9.94
									c-1.716-1.253-3.628-2.118-5.682-2.572c-1.987-0.438-4.014-0.475-6.025-0.108c-0.87,0.162-1.713-0.42-1.874-1.295
									c-0.16-0.875,0.42-1.714,1.295-1.873c2.434-0.445,4.891-0.401,7.297,0.131c2.492,0.55,4.81,1.598,6.888,3.116
									c3.974,2.904,6.582,7.182,7.34,12.045c0.137,0.879-0.465,1.702-1.344,1.839
									C363.213,218.296,363.129,218.303,363.046,218.303z"/>
							</g>
						</g>
					</g>
					<g>
						<g>
							<g>
								<path fill="#FFFFFF" d="M370.855,217.488c-0.975,0-1.832-0.71-1.986-1.703c-0.934-5.993-4.146-11.265-9.044-14.843
									c-2.562-1.871-5.417-3.163-8.487-3.84c-2.967-0.655-5.995-0.708-8.996-0.159c-1.094,0.201-2.142-0.524-2.342-1.618
									c-0.201-1.093,0.524-2.142,1.617-2.342c3.533-0.647,7.095-0.583,10.589,0.188c3.617,0.798,6.979,2.319,9.994,4.521
									c5.766,4.212,9.547,10.418,10.646,17.474c0.172,1.098-0.58,2.128-1.678,2.299
									C371.063,217.481,370.958,217.488,370.855,217.488z"/>
							</g>
						</g>
					</g>
				</g>
				<g>
					<g>
						<g>
							<path fill="#FFFFFF" d="M152.94,240.788c-0.667,0-1.208-0.541-1.208-1.208v-2.415c0-0.667,0.541-1.208,1.208-1.208
								c0.667,0,1.208,0.541,1.208,1.208v2.415C154.148,240.247,153.607,240.788,152.94,240.788z"/>
						</g>
					</g>
					<g>
						<g>
							<path fill="#FFFFFF" d="M152.94,271.004c-0.667,0-1.208-0.541-1.208-1.208v-5.036c0-0.667,0.541-1.208,1.208-1.208
								c0.667,0,1.208,0.541,1.208,1.208v5.036C154.148,270.463,153.607,271.004,152.94,271.004z M152.94,260.931
								c-0.667,0-1.208-0.541-1.208-1.208v-5.036c0-0.667,0.541-1.208,1.208-1.208c0.667,0,1.208,0.541,1.208,1.208v5.036
								C154.148,260.39,153.607,260.931,152.94,260.931z M152.94,250.859c-0.667,0-1.208-0.541-1.208-1.208v-5.036
								c0-0.667,0.541-1.208,1.208-1.208c0.667,0,1.208,0.541,1.208,1.208v5.036C154.148,250.318,153.607,250.859,152.94,250.859z"
								/>
						</g>
					</g>
					<g>
						<g>
							<path fill="#FFFFFF" d="M152.94,278.455c-0.667,0-1.208-0.541-1.208-1.208v-2.415c0-0.667,0.541-1.208,1.208-1.208
								c0.667,0,1.208,0.541,1.208,1.208v2.415C154.148,277.914,153.607,278.455,152.94,278.455z"/>
						</g>
					</g>
				</g>
				<g>
					<g>
						<path fill="#FFFFFF" d="M202.092,222.999c-0.667,0-1.208-0.541-1.208-1.208v-4.831c0-0.667,0.541-1.208,1.208-1.208
							c0.667,0,1.208,0.541,1.208,1.208v4.831C203.3,222.458,202.759,222.999,202.092,222.999z M230.98,218.072h-4.831
							c-0.667,0-1.208-0.541-1.208-1.208s0.541-1.208,1.208-1.208h4.831c0.667,0,1.208,0.541,1.208,1.208
							S231.647,218.072,230.98,218.072z M221.318,218.072h-4.831c-0.667,0-1.208-0.541-1.208-1.208s0.541-1.208,1.208-1.208h4.831
							c0.667,0,1.208,0.541,1.208,1.208S221.985,218.072,221.318,218.072z M211.657,218.072h-4.831
							c-0.667,0-1.208-0.541-1.208-1.208s0.541-1.208,1.208-1.208h4.831c0.667,0,1.208,0.541,1.208,1.208
							S212.324,218.072,211.657,218.072z"/>
					</g>
				</g>
				<g>
					<g>
						<path fill="#FFFFFF" d="M314.361,220.621h-4.831c-0.667,0-1.208-0.541-1.208-1.208s0.541-1.208,1.208-1.208h4.831
							c0.667,0,1.208,0.541,1.208,1.208S315.028,220.621,314.361,220.621z M304.7,220.621h-4.831c-0.667,0-1.208-0.541-1.208-1.208
							s0.541-1.208,1.208-1.208h4.831c0.667,0,1.208,0.541,1.208,1.208S305.366,220.621,304.7,220.621z M295.038,220.621h-4.831
							c-0.667,0-1.208-0.541-1.208-1.208s0.541-1.208,1.208-1.208h4.831c0.667,0,1.208,0.541,1.208,1.208
							S295.705,220.621,295.038,220.621z"/>
					</g>
				</g>
			</g>
			<g>
				<g>
					<g>
						<circle fill="#DB5240" cx="77.313" cy="363.16" r="32.299"/>
					</g>
					<g>
						<circle fill="#FFFFFF" cx="77.313" cy="363.16" r="25.919"/>
					</g>
					<g>
						<circle fill="#DB5240" cx="77.313" cy="363.16" r="20.717"/>
					</g>
					<g>
						<circle fill="#FFFFFF" cx="77.313" cy="363.16" r="14.649"/>
					</g>
					<g>
						<circle fill="#DB5240" cx="77.313" cy="363.16" r="8.76"/>
					</g>
				</g>
				<g>
					<g>
						
							<rect x="76.835" y="349.89" transform="matrix(0.8725 -0.4886 0.4886 0.8725 -158.5859 93.0638)" fill="#2D4762" width="44.406" height="1.057"/>
					</g>
					<g>
						<polygon fill="#2D4762" points="83.738,354.86 82.807,359.508 87.256,361.143 76.525,363.026 						"/>
					</g>
					<g>
						<polygon fill="#2D4762" points="121.562,342.374 116.271,345.337 112.793,343.322 118.084,340.359 						"/>
					</g>
					<g>
						<polygon fill="#2D4762" points="117.667,335.419 112.376,338.382 112.276,342.4 117.567,339.437 						"/>
					</g>
				</g>
			</g>
			<g>
				<path fill="#FFFFFF" d="M72.852,332.463c-0.889,0-1.61-0.721-1.61-1.61v-2.788c0-0.889,0.721-1.61,1.61-1.61
					c0.889,0,1.61,0.721,1.61,1.61v2.788C74.462,331.742,73.741,332.463,72.852,332.463z M72.852,324.844
					c-0.889,0-1.61-0.721-1.61-1.61v-4.831c0-0.889,0.721-1.61,1.61-1.61c0.889,0,1.61,0.721,1.61,1.61v4.831
					C74.462,324.123,73.741,324.844,72.852,324.844z M72.852,315.183c-0.889,0-1.61-0.721-1.61-1.61v-4.831
					c0-0.889,0.721-1.61,1.61-1.61c0.889,0,1.61,0.721,1.61,1.61v4.831C74.462,314.462,73.741,315.183,72.852,315.183z
					 M72.852,305.522c-0.889,0-1.61-0.721-1.61-1.61v-4.831c0-0.889,0.721-1.61,1.61-1.61c0.889,0,1.61,0.721,1.61,1.61v4.831
					C74.462,304.801,73.741,305.522,72.852,305.522z M110.812,300.005h-4.831c-0.889,0-1.61-0.721-1.61-1.61
					c0-0.889,0.721-1.61,1.61-1.61h4.831c0.889,0,1.61,0.721,1.61,1.61C112.422,299.284,111.701,300.005,110.812,300.005z
					 M101.15,300.005H96.32c-0.889,0-1.61-0.721-1.61-1.61c0-0.889,0.721-1.61,1.61-1.61h4.831c0.889,0,1.61,0.721,1.61,1.61
					C102.761,299.284,102.04,300.005,101.15,300.005z M91.489,300.005h-4.831c-0.889,0-1.61-0.721-1.61-1.61
					c0-0.889,0.721-1.61,1.61-1.61h4.831c0.889,0,1.61,0.721,1.61,1.61C93.099,299.284,92.378,300.005,91.489,300.005z
					 M81.828,300.005h-4.831c-0.889,0-1.61-0.721-1.61-1.61c0-0.889,0.721-1.61,1.61-1.61h4.831c0.889,0,1.61,0.721,1.61,1.61
					C83.438,299.284,82.717,300.005,81.828,300.005z"/>
			</g>
			<g>
				<g>
					
						<rect x="349.738" y="105.105" transform="matrix(0.8339 -0.5519 0.5519 0.8339 -3.5598 225.7282)" fill="#FFFFFF" width="47.066" height="27.347"/>
				</g>
				<g>
					<polygon fill="#C4E9FB" points="346.1,120.364 373.27,118.779 385.349,94.389 376.111,123.071 					"/>
				</g>
			</g>
			<g>
				<path fill="#FFFFFF" d="M330.911,165.894c-0.889,0-1.61-0.721-1.61-1.61v-4.831c0-0.889,0.721-1.61,1.61-1.61
					c0.889,0,1.61,0.721,1.61,1.61v4.831C332.521,165.173,331.8,165.894,330.911,165.894z M330.911,156.224
					c-0.889,0-1.61-0.713-1.61-1.602v-0.016c0-1.694,0.146-3.398,0.432-5.065c0.15-0.876,0.984-1.467,1.859-1.314
					c0.877,0.151,1.465,0.984,1.314,1.86c-0.255,1.487-0.385,3.007-0.385,4.519C332.521,155.495,331.8,156.224,330.911,156.224z
					 M332.543,146.757c-0.179,0-0.362-0.03-0.54-0.094c-0.838-0.298-1.275-1.219-0.977-2.057c0.569-1.599,1.281-3.16,2.113-4.64
					c0.436-0.775,1.417-1.052,2.194-0.613c0.775,0.436,1.05,1.418,0.613,2.193c-0.744,1.321-1.378,2.714-1.887,4.141
					C333.825,146.346,333.205,146.757,332.543,146.757z M337.26,138.381c-0.358,0-0.718-0.119-1.017-0.362
					c-0.689-0.562-0.792-1.576-0.23-2.266c1.073-1.315,2.267-2.548,3.548-3.661c0.672-0.583,1.688-0.512,2.271,0.158
					c0.584,0.671,0.513,1.688-0.158,2.272c-1.143,0.994-2.208,2.093-3.165,3.266C338.191,138.179,337.727,138.381,337.26,138.381z
					 M344.517,132.078c-0.545,0-1.077-0.277-1.38-0.778c-0.46-0.761-0.215-1.751,0.546-2.211c0.333-0.202,0.671-0.397,1.013-0.587
					c0.776-0.431,1.758-0.151,2.189,0.627c0.432,0.778,0.15,1.758-0.627,2.189c-0.306,0.17-0.609,0.346-0.909,0.526
					C345.088,132.003,344.801,132.078,344.517,132.078z"/>
			</g>
			<g>
				<g>
					<g>
						<path fill="#404143" d="M76.265,188.365l-3.596-7.215c-1.689-3.389-0.306-7.52,3.083-9.209
							c3.389-1.689,7.52-0.306,9.209,3.083l3.596,7.215l2.933-1.462l-3.596-7.215c-2.495-5.006-8.597-7.049-13.603-4.554
							c-5.006,2.495-7.049,8.597-4.554,13.603l3.596,7.215L76.265,188.365z"/>
					</g>
				</g>
				<g>
					<path fill="#343537" d="M89.807,181.615l-3.501-7.025c-2.033-4.079-7.005-5.743-11.084-3.71
						c-4.078,2.033-5.743,7.005-3.71,11.083l3.501,7.025l1.251-0.624l-3.596-7.215c-1.689-3.389-0.306-7.52,3.083-9.209
						c3.389-1.689,7.52-0.306,9.209,3.083l3.596,7.215L89.807,181.615z"/>
				</g>
				<g>
					<path fill="#FFC650" d="M97.728,181.449l6.076,12.191c1.079,2.165,0.201,4.8-1.969,5.881l-19.767,9.852
						c-1.139,0.568-2.407,0.595-3.513,0.176c-0.996-0.382-1.857-1.119-2.369-2.145l-6.076-12.191
						c-1.079-2.165-0.197-4.802,1.969-5.881l19.767-9.852c0.367-0.183,0.748-0.312,1.134-0.382c0.555-0.112,1.114-0.104,1.651-0.005
						C95.93,179.349,97.094,180.178,97.728,181.449z"/>
				</g>
				<g>
					<g>
						<path fill="#FFD283" d="M87.897,181.449l-4.666,27.344l-1.163,0.58c-1.139,0.568-2.407,0.595-3.513,0.176l4.376-25.625
							L87.897,181.449z"/>
					</g>
					<g>
						<path fill="#FFD283" d="M94.631,179.093l-4.484,26.253l-1.799,0.896l4.632-27.144
							C93.535,178.987,94.094,178.995,94.631,179.093z"/>
					</g>
				</g>
				<g opacity="0.39">
					<path fill="#FCB650" d="M95.192,179.247c0.38,0.351,0.704,0.774,0.949,1.264l6.076,12.191c1.079,2.165,0.201,4.8-1.969,5.881
						l-19.767,9.852c-1.083,0.54-2.281,0.586-3.348,0.229c0.417,0.385,0.9,0.685,1.421,0.885c1.106,0.419,2.374,0.391,3.513-0.176
						l19.767-9.852c2.17-1.082,3.048-3.716,1.969-5.881l-6.076-12.191C97.187,180.365,96.259,179.606,95.192,179.247z"/>
				</g>
				<g>
					<path fill="#F9A346" d="M88.697,189.782c-0.955-1.917-3.378-2.618-5.23-1.421c-1.348,0.871-1.97,2.583-1.485,4.112
						c0.385,1.215,1.308,2.053,2.389,2.389c0.684,0.212,1.267,0.664,1.586,1.305l2.32,4.656c0.171,0.344,0.589,0.483,0.932,0.312
						l1.748-0.871c0.344-0.171,0.483-0.589,0.312-0.932l-2.321-4.657c-0.313-0.627-0.344-1.355-0.1-2.012
						C89.187,191.755,89.163,190.717,88.697,189.782z"/>
				</g>
				<g>
					<path fill="#F78F37" d="M89.093,200.417l-2.32-4.656c-0.319-0.641-0.903-1.092-1.587-1.305
						c-1.081-0.336-2.004-1.173-2.389-2.389c-0.481-1.517,0.129-3.211,1.454-4.089c-0.268,0.094-0.532,0.219-0.784,0.382
						c-1.348,0.871-1.97,2.583-1.485,4.113c0.385,1.215,1.308,2.053,2.389,2.389c0.684,0.212,1.267,0.664,1.586,1.305l2.32,4.655
						c0.171,0.344,0.589,0.483,0.932,0.312l0.815-0.406C89.681,200.9,89.264,200.76,89.093,200.417z"/>
				</g>
			</g>
			<g>
				<g>
					<g>
						<g>
							<polygon fill="#AEDEF5" points="489.362,323.012 475.493,320.753 482.694,328.904 							"/>
						</g>
					</g>
					<g>
						<g>
							<polygon fill="#C5E9F7" points="489.362,323.012 482.694,328.904 489.062,329.478 							"/>
						</g>
					</g>
					<g>
						<g>
							<polygon fill="#ADDCF6" points="502.109,337.439 503.707,352.687 495.44,343.33 							"/>
						</g>
					</g>
					<g>
						<g>
							<polygon fill="#C5E9F7" points="502.109,337.439 495.44,343.33 495.477,336.739 							"/>
						</g>
					</g>
					<g>
						<g>
							<polygon fill="#EEF8F9" points="489.062,329.478 495.772,330.179 495.477,336.739 488.984,336.209 							"/>
						</g>
					</g>
					<g>
						<g>
							<polygon fill="#D1EDF9" points="502.109,337.439 495.772,330.179 495.477,336.739 							"/>
						</g>
					</g>
					<g>
						<g>
							<polygon fill="#D6EEFA" points="489.362,323.012 495.772,330.179 489.062,329.478 							"/>
						</g>
					</g>
					<g>
						<g>
							<polygon fill="#D5EDF7" points="482.694,328.904 489.077,336.128 489.062,329.478 							"/>
						</g>
					</g>
					<g>
						<g>
							<polygon fill="#D5EDF7" points="495.477,336.739 495.44,343.33 489.077,336.128 							"/>
						</g>
					</g>
					<g>
						<g>
							<polygon fill="#8EC0F3" points="475.493,320.753 482.694,328.904 471.572,351.593 							"/>
						</g>
					</g>
					<g>
						<g>
							<polygon fill="#AEE0F9" points="482.694,328.904 495.44,343.33 471.572,351.593 							"/>
						</g>
					</g>
					<g>
						<g>
							<polygon fill="#90B9F1" points="495.44,343.33 503.707,352.687 471.572,351.593 							"/>
						</g>
					</g>
				</g>
				<g>
					<path fill="#FFFFE8" d="M488.169,330.993c-1.171,1.034-2.959,0.924-3.994-0.246c0.985,1.115,0.932,2.79-0.087,3.84l0.011,0.013
						c1.168-0.881,2.837-0.728,3.823,0.388C486.887,333.817,486.997,332.028,488.169,330.993z"/>
				</g>
				<g>
					<path fill="#FFFFE8" d="M502.443,347.15c-1.171,1.035-2.959,0.924-3.994-0.246c0.985,1.115,0.932,2.79-0.087,3.841l0.011,0.012
						c1.169-0.881,2.837-0.728,3.823,0.388C501.161,349.973,501.272,348.184,502.443,347.15z"/>
				</g>
			</g>
			<g>
				<g>
					<g>
						<g>
							<polygon fill="#AEDEF5" points="459.827,340.538 454.575,339.682 457.302,342.769 							"/>
						</g>
					</g>
					<g>
						<g>
							<polygon fill="#C5E9F7" points="459.827,340.538 457.302,342.769 459.714,342.986 							"/>
						</g>
					</g>
					<g>
						<g>
							<polygon fill="#ADDCF6" points="464.654,346.001 465.26,351.775 462.129,348.232 							"/>
						</g>
					</g>
					<g>
						<g>
							<polygon fill="#C5E9F7" points="464.654,346.001 462.129,348.232 462.143,345.736 							"/>
						</g>
					</g>
					<g>
						<g>
							<polygon fill="#EEF8F9" points="459.714,342.986 462.255,343.252 462.143,345.736 459.684,345.535 							"/>
						</g>
					</g>
					<g>
						<g>
							<polygon fill="#D1EDF9" points="464.654,346.001 462.255,343.252 462.143,345.736 							"/>
						</g>
					</g>
					<g>
						<g>
							<polygon fill="#D6EEFA" points="459.827,340.538 462.255,343.252 459.714,342.986 							"/>
						</g>
					</g>
					<g>
						<g>
							<polygon fill="#D5EDF7" points="457.302,342.769 459.719,345.504 459.714,342.986 							"/>
						</g>
					</g>
					<g>
						<g>
							<polygon fill="#D5EDF7" points="462.143,345.736 462.129,348.232 459.719,345.504 							"/>
						</g>
					</g>
					<g>
						<g>
							<polygon fill="#8EC0F3" points="454.575,339.682 457.302,342.769 453.09,351.361 							"/>
						</g>
					</g>
					<g>
						<g>
							<polygon fill="#AEE0F9" points="457.302,342.769 462.129,348.232 453.09,351.361 							"/>
						</g>
					</g>
					<g>
						<g>
							<polygon fill="#90B9F1" points="462.129,348.232 465.26,351.775 453.09,351.361 							"/>
						</g>
					</g>
				</g>
				<g>
					<path fill="#FFFFE8" d="M459.375,343.56c-0.444,0.392-1.121,0.35-1.512-0.093c0.373,0.422,0.353,1.057-0.033,1.454l0.004,0.005
						c0.443-0.334,1.074-0.276,1.448,0.147C458.89,344.629,458.932,343.952,459.375,343.56z"/>
				</g>
				<g>
					<path fill="#FFFFE8" d="M464.781,349.678c-0.443,0.392-1.121,0.35-1.512-0.093c0.373,0.422,0.353,1.057-0.033,1.454
						l0.004,0.005c0.443-0.334,1.074-0.276,1.447,0.147C464.296,350.748,464.337,350.07,464.781,349.678z"/>
				</g>
			</g>
			<g>
				<g>
					<path fill="#8ECAEE" d="M48.516,288.519L48.516,288.519c-1.659,0-3.004-1.345-3.004-3.003v-5.844
						c0-1.659,1.345-3.004,3.004-3.004l0,0c1.659,0,3.003,1.345,3.003,3.004v5.844C51.52,287.174,50.175,288.519,48.516,288.519z"/>
				</g>
				<g>
					<path fill="#8ECAEE" d="M57.443,288.519L57.443,288.519c-1.659,0-3.004-1.345-3.004-3.003v-11.259
						c0-1.659,1.345-3.004,3.004-3.004l0,0c1.659,0,3.004,1.345,3.004,3.004v11.259C60.446,287.174,59.101,288.519,57.443,288.519z"
						/>
				</g>
				<g>
					<path fill="#8ECAEE" d="M66.369,288.519L66.369,288.519c-1.659,0-3.004-1.345-3.004-3.003v-17.138
						c0-1.659,1.345-3.003,3.004-3.003l0,0c1.659,0,3.004,1.345,3.004,3.003v17.138C69.372,287.174,68.028,288.519,66.369,288.519z"
						/>
				</g>
				<g>
					<path fill="#8ECAEE" d="M75.295,288.519L75.295,288.519c-1.659,0-3.004-1.345-3.004-3.003v-22.172
						c0-1.659,1.345-3.003,3.003-3.003h0c1.659,0,3.004,1.345,3.004,3.003v22.172C78.298,287.174,76.954,288.519,75.295,288.519z"/>
				</g>
			</g>
			<g>
				<g>
					<path fill="#2E637D" d="M55.089,280.749c-1.256-2.077-3.148-3.808-5.547-4.847c-6.159-2.681-13.317,0.145-15.99,6.304
						c-1.28,2.947-1.296,6.119-0.298,8.921c-1.964-3.253-2.383-7.375-0.749-11.135c2.673-6.159,9.83-8.977,15.989-6.304
						C51.7,275.081,54.002,277.698,55.089,280.749z"/>
				</g>
				<g>
					<path fill="#2E637D" d="M51.7,268.028c-9.364-4.187-20.482-0.089-24.87,9.186c-4.009,8.47-1.208,18.292,6.038,23.509
						c0.016,0.008,0.032,0.024,0.048,0.032l-1.328,3.06l-10.056,23.131c-0.451,1.047,0.024,2.262,1.071,2.721l3.542,1.538
						c1.047,0.451,2.262-0.032,2.713-1.071l10.056-23.139l1.328-3.059c0.016,0,0.04,0.008,0.056,0.008
						c8.558,1.707,17.439-2.713,21.062-11.046C65.507,283.349,61.184,272.255,51.7,268.028z M58.455,291.634
						c-3.47,8.003-12.777,11.674-20.78,8.196c-8.003-3.478-11.674-12.785-8.196-20.788c3.478-8.003,12.785-11.666,20.788-8.196
						C58.269,274.324,61.933,283.631,58.455,291.634z"/>
				</g>
				<g>
					<g>
						<path fill="#FFFFFF" d="M55.089,280.749c-1.256-2.077-3.148-3.808-5.547-4.847c-6.159-2.681-13.317,0.145-15.99,6.304
							c-1.28,2.947-1.296,6.119-0.298,8.921c-1.964-3.253-2.383-7.375-0.749-11.135c2.673-6.159,9.83-8.977,15.989-6.304
							C51.7,275.081,54.002,277.698,55.089,280.749z"/>
					</g>
					<g>
						<path fill="#C0C2C4" d="M55.089,280.749c-1.256-2.077-3.148-3.808-5.547-4.847c-6.159-2.681-13.317,0.145-15.99,6.304
							c-1.28,2.947-1.296,6.119-0.298,8.921c-1.964-3.253-2.383-7.375-0.749-11.135c2.673-6.159,9.83-8.977,15.989-6.304
							C51.7,275.081,54.002,277.698,55.089,280.749z"/>
					</g>
				</g>
				<g>
					<path fill="#C0C2C4" d="M39.598,303.416l-5.863-2.547c-0.947-0.411-2.048,0.023-2.459,0.969l0,0
						c-0.411,0.947,0.023,2.048,0.969,2.459l5.863,2.547c0.947,0.411,2.048-0.023,2.459-0.969l0,0
						C40.979,304.928,40.545,303.827,39.598,303.416z"/>
				</g>
			</g>
			<g opacity="0.32">
				<g>
					<g>
						<g>
							<path fill="#FFFFFF" d="M7.314,321.164l2.866,0.715l0.429-1.719c1.024,0.052,2.027-0.105,2.958-0.441l0.912,1.519
								l2.532-1.521l-0.912-1.519c0.734-0.664,1.344-1.475,1.78-2.404l1.719,0.429l0.715-2.866l-1.719-0.429
								c0.052-1.024-0.105-2.027-0.441-2.958l1.519-0.912l-1.52-2.532l-1.519,0.912c-0.664-0.734-1.475-1.344-2.404-1.779
								l0.429-1.719l-2.866-0.715l-0.429,1.719c-1.024-0.052-2.027,0.105-2.958,0.441l-0.912-1.519l-2.532,1.521l0.912,1.519
								c-0.734,0.664-1.344,1.475-1.78,2.404l-1.719-0.429l-0.715,2.866l1.719,0.429c-0.052,1.024,0.105,2.027,0.441,2.958
								L2.3,316.046l1.52,2.532l1.519-0.912c0.664,0.734,1.475,1.344,2.404,1.78L7.314,321.164z M5.877,311.277
								c0.704-2.822,3.563-4.538,6.385-3.834c2.822,0.704,4.538,3.563,3.834,6.385c-0.704,2.822-3.563,4.538-6.384,3.834
								C6.889,316.957,5.172,314.099,5.877,311.277z"/>
						</g>
					</g>
					<g>
						<g>
							<circle fill="#FFFFFF" cx="10.986" cy="312.553" r="4.072"/>
						</g>
					</g>
				</g>
				<g>
					<g>
						<g>
							<path fill="#FFFFFF" d="M-2.678,331.615l2.09,0.522l0.313-1.254c0.747,0.038,1.479-0.077,2.157-0.322l0.665,1.108
								l1.847-1.109l-0.665-1.108c0.535-0.484,0.98-1.076,1.298-1.753l1.254,0.313l0.522-2.09l-1.254-0.313
								c0.038-0.747-0.077-1.479-0.322-2.157l1.108-0.665l-1.109-1.847l-1.108,0.665c-0.484-0.536-1.076-0.98-1.753-1.298
								l0.313-1.254l-2.09-0.522l-0.313,1.254c-0.747-0.038-1.478,0.077-2.157,0.322L-2.548,319l-1.847,1.109l0.665,1.108
								c-0.536,0.484-0.98,1.076-1.298,1.753l-1.254-0.313l-0.522,2.09l1.253,0.313c-0.038,0.747,0.077,1.478,0.322,2.157
								l-1.108,0.665l1.109,1.847l1.108-0.665c0.484,0.536,1.076,0.98,1.753,1.298L-2.678,331.615z"/>
						</g>
					</g>
				</g>
			</g>
			<g opacity="0.32">
				<g>
					<g>
						<g>
							<path fill="#FFFFFF" d="M185.172,154.005l2.037,2.138l1.283-1.222c0.837,0.592,1.768,0.997,2.735,1.211l-0.043,1.771
								l2.953,0.071l0.043-1.771c0.976-0.168,1.925-0.527,2.79-1.077l1.222,1.283l2.138-2.037l-1.222-1.283
								c0.592-0.837,0.997-1.768,1.211-2.735l1.771,0.043l0.072-2.953l-1.771-0.043c-0.167-0.976-0.527-1.925-1.077-2.79
								l1.283-1.222l-2.037-2.138l-1.283,1.222c-0.837-0.592-1.768-0.997-2.735-1.211l0.043-1.771l-2.953-0.071l-0.043,1.771
								c-0.976,0.167-1.925,0.527-2.79,1.077l-1.222-1.283l-2.138,2.037l1.222,1.283c-0.592,0.837-0.997,1.768-1.211,2.735
								l-1.771-0.043l-0.072,2.953l1.771,0.043c0.167,0.976,0.527,1.925,1.077,2.79L185.172,154.005z M189.251,144.885
								c2.106-2.006,5.439-1.926,7.445,0.18c2.006,2.106,1.925,5.439-0.18,7.445c-2.106,2.006-5.439,1.926-7.445-0.18
								C187.065,150.225,187.145,146.891,189.251,144.885z"/>
						</g>
					</g>
					<g>
						<g>
							<circle fill="#FFFFFF" cx="192.884" cy="148.698" r="4.072"/>
						</g>
					</g>
				</g>
				<g>
					<g>
						<g>
							<path fill="#FFFFFF" d="M171.137,157.482l1.486,1.559l0.936-0.891c0.611,0.432,1.29,0.727,1.994,0.883l-0.031,1.292
								l2.153,0.052l0.031-1.292c0.711-0.122,1.404-0.384,2.035-0.786l0.891,0.936l1.56-1.486l-0.891-0.936
								c0.432-0.61,0.727-1.29,0.883-1.994l1.292,0.031l0.052-2.153l-1.292-0.031c-0.122-0.712-0.384-1.404-0.786-2.035l0.935-0.891
								l-1.486-1.56l-0.936,0.891c-0.611-0.432-1.29-0.727-1.994-0.883l0.031-1.292l-2.154-0.052l-0.031,1.292
								c-0.711,0.122-1.404,0.384-2.035,0.786l-0.891-0.935l-1.56,1.486l0.891,0.936c-0.432,0.611-0.727,1.29-0.883,1.994
								l-1.292-0.031l-0.052,2.153l1.292,0.031c0.122,0.712,0.384,1.404,0.786,2.035L171.137,157.482z"/>
						</g>
					</g>
				</g>
			</g>
			<g>
				<g>
					<path fill="#DB5240" d="M214.18,108.573c0,12.841-10.403,23.243-23.243,23.243c-3.595,0-6.999-0.815-10.033-2.274
						c-7.821-3.739-13.211-11.724-13.211-20.97c0-2.767,0.479-5.417,1.363-7.876c3.232-8.965,11.807-15.368,21.881-15.368v23.243
						H214.18z"/>
				</g>
				<g>
					<path fill="#2E637D" d="M218.52,105.605h-23.245V82.36C208.113,82.36,218.52,92.767,218.52,105.605z"/>
				</g>
				<g>
					<path fill="#FFED67" d="M190.938,85.327v23.245l-21.881-7.877C172.285,91.734,180.862,85.327,190.938,85.327z"/>
				</g>
				<g>
					<path fill="#FFF7C1" d="M214.183,108.572c0,12.838-10.407,23.245-23.245,23.245c-3.597,0-6.999-0.817-10.037-2.272
						l10.037-20.973H214.183z"/>
				</g>
			</g>
			<g>
				<path fill="#FFFFFF" d="M154.817,163.917c-0.889,0-1.61-0.721-1.61-1.61v-4.831c0-0.889,0.721-1.61,1.61-1.61
					c0.889,0,1.61,0.721,1.61,1.61v4.831C156.427,163.196,155.706,163.917,154.817,163.917z M154.817,154.256
					c-0.889,0-1.61-0.721-1.61-1.61v-4.831c0-0.889,0.721-1.61,1.61-1.61c0.889,0,1.61,0.721,1.61,1.61v4.831
					C156.427,153.535,155.706,154.256,154.817,154.256z M154.817,144.595c-0.889,0-1.61-0.721-1.61-1.61v-4.831
					c0-0.889,0.721-1.61,1.61-1.61c0.889,0,1.61,0.721,1.61,1.61v4.831C156.427,143.874,155.706,144.595,154.817,144.595z
					 M154.817,134.933c-0.889,0-1.61-0.721-1.61-1.61v-4.831c0-0.889,0.721-1.61,1.61-1.61c0.889,0,1.61,0.721,1.61,1.61v4.831
					C156.427,134.212,155.706,134.933,154.817,134.933z M154.817,125.272c-0.889,0-1.61-0.721-1.61-1.61v-4.831
					c0-0.889,0.721-1.61,1.61-1.61c0.889,0,1.61,0.721,1.61,1.61v4.831C156.427,124.551,155.706,125.272,154.817,125.272z
					 M163.611,119.574h-4.831c-0.889,0-1.61-0.721-1.61-1.61c0-0.889,0.721-1.61,1.61-1.61h4.831c0.889,0,1.61,0.721,1.61,1.61
					C165.221,118.853,164.501,119.574,163.611,119.574z"/>
			</g>
			<g>
				<g>
					<path fill="#FFFFFF" d="M350.014,99.25c0.001-0.034,0.001-0.069,0.001-0.103c0.015-3.981-3.221-7.292-7.201-7.364
						c-1.677-0.031-3.229,0.503-4.478,1.423c0.062-0.405,0.09-0.821,0.083-1.246c-0.073-4.07-3.538-7.346-7.607-7.198
						c-3.74,0.136-6.764,3.073-7.043,6.775c-1.342-0.772-2.927-1.167-4.614-1.036c-3.96,0.309-7.126,3.559-7.339,7.525
						c-0.038,0.7,0.015,1.381,0.147,2.033c0.432,2.131,2.318,3.655,4.492,3.655h28.971
						C347.914,103.714,349.97,101.735,350.014,99.25z"/>
				</g>
				<g>
					<polygon fill="#4788A1" points="333.302,100.078 333.302,92.023 328.519,92.023 328.519,100.078 324.751,100.078 
						330.91,107.949 337.07,100.078 					"/>
				</g>
			</g>
			<g>
				<path fill="#FFFFFF" d="M488.785,278.912c1.462,1.476,3.844,1.487,5.32,0.025c1.476-1.462,1.487-3.844,0.025-5.321
					c-1.462-1.476-3.844-1.487-5.32-0.025c-0.797,0.789-1.162,1.846-1.104,2.883l-9.235,1.915c-0.208-0.476-0.501-0.924-0.889-1.315
					c-1.682-1.698-4.422-1.711-6.119-0.029c-1.698,1.682-1.711,4.422-0.029,6.119c1.5,1.514,3.84,1.684,5.533,0.511l6.522,6.583
					c-1.419,1.919-1.272,4.635,0.459,6.383c1.913,1.931,5.029,1.945,6.96,0.033c1.931-1.913,1.945-5.029,0.033-6.96
					c-1.732-1.748-4.446-1.92-6.378-0.519l-6.521-6.583c0.579-0.819,0.839-1.791,0.782-2.751l9.268-1.922
					C488.264,278.289,488.494,278.619,488.785,278.912z"/>
			</g>
		</g>
	</g>
</g>
<g id="Designed_by_Freepik">
</g>
</svg>
